<svg width="30" height="30" viewBox="0 0 30 30" fill="none" xmlns="http://www.w3.org/2000/svg">
<path d="M0.5 9.00108V9.00101C0.499646 6.70298 1.33142 4.51089 2.79379 2.91567C4.25447 1.32228 6.21817 0.459839 8.23971 0.501439L8.23971 0.501615L8.25295 0.501537C10.6656 0.487301 12.9829 1.62358 14.6103 3.64798L15 4.13273L15.3897 3.64798C17.0171 1.62358 19.3344 0.487301 21.747 0.501537V0.501712L21.7603 0.501439C23.7818 0.459839 25.7455 1.32228 27.2062 2.91567C28.6686 4.5109 29.5004 6.70298 29.5 9.00101V9.00108C29.5 13.2803 27.2059 17.0803 24.1625 20.5165C22.6447 22.2301 20.955 23.8373 19.2974 25.3556C18.8203 25.7926 18.3447 26.2233 17.8765 26.6472C16.8628 27.5651 15.8843 28.4512 15.0018 29.301C14.0824 28.4072 13.0585 27.4769 11.9985 26.514C11.5726 26.1271 11.1409 25.735 10.7079 25.3378C9.05046 23.8175 7.36026 22.2122 5.84159 20.5016C2.79658 17.0718 0.5 13.2832 0.5 9.00108Z" stroke="black" stroke-opacity="0.5"/>
</svg>
