<svg width="20" height="19" viewBox="0 0 20 19" fill="none" xmlns="http://www.w3.org/2000/svg">
<path d="M17.97 18.385L14.614 15.029C13.1661 15.6882 11.5908 16.0204 10 16.002C8.35988 16.0224 6.73671 15.6684 5.254 14.967C4.10468 14.4062 3.07264 13.6318 2.213 12.685C1.30049 11.7069 0.583297 10.5633 0.1 9.316L0 9.002L0.105 8.686C0.82781 6.84229 2.04426 5.23316 3.621 4.035L1 1.414L2.413 0.0019989L19.382 16.971L17.972 18.385H17.97ZM5.036 5.451C3.75792 6.34691 2.74865 7.57471 2.117 9.002C3.47142 12.1269 6.59587 14.1087 10 14.002C11.0498 14.0106 12.0936 13.8415 13.087 13.502L11.287 11.702C10.8863 11.8984 10.4462 12.001 10 12.002C8.34746 11.9916 7.01037 10.6545 7 9.002C7.00048 8.55477 7.10309 8.11355 7.3 7.712L5.036 5.451ZM17.852 12.612L16.46 11.221C17.0456 10.5589 17.5256 9.81044 17.883 9.002C16.5304 5.87558 13.4047 3.89308 10 4.002C9.753 4.002 9.505 4.011 9.265 4.028L7.5 2.261C8.32163 2.08523 9.15979 1.9984 10 2.002C11.6401 1.98165 13.2633 2.33562 14.746 3.037C15.8953 3.59773 16.9274 4.37219 17.787 5.319C18.6991 6.29596 19.4163 7.43807 19.9 8.684L20 9.002L19.895 9.318C19.4268 10.5361 18.7342 11.6555 17.853 12.618L17.852 12.612Z" fill="#2E3A59"/>
</svg>
