<svg width="24" height="24" viewBox="0 0 24 24" fill="none" xmlns="http://www.w3.org/2000/svg">
<path d="M12 22C7.95355 22.0024 4.30449 19.5659 2.75566 15.8276C1.20683 12.0893 2.06354 7.78608 4.926 4.926C7.45329 2.3987 11.1369 1.41168 14.5893 2.33673C18.0416 3.26179 20.7382 5.95838 21.6633 9.41073C22.5883 12.8631 21.6013 16.5467 19.074 19.074C17.2014 20.955 14.6542 22.0086 12 22ZM4 12.172C4.04731 16.5732 7.6411 20.1095 12.0425 20.086C16.444 20.0622 19.9995 16.4875 19.9995 12.086C19.9995 7.6845 16.444 4.10977 12.0425 4.08599C7.6411 4.06245 4.04731 7.59876 4 12V12.172ZM9.409 16L8 14.59L10.59 12L8 9.41L9.41 8L12 10.59L14.59 8L16 9.41L13.41 12L16 14.59L14.591 16L12 13.41L9.41 16H9.409Z" fill="#2E3A59"/>
</svg>
