<svg width="15" height="16" viewBox="0 0 15 16" fill="none" xmlns="http://www.w3.org/2000/svg">
<path d="M11.6731 12.7544L8.10125 9.18187C6.5123 10.3115 4.32278 10.0352 3.0643 8.5462C1.80582 7.05719 1.89823 4.85224 3.27688 3.47375C4.65517 2.09465 6.86033 2.00184 8.34962 3.26026C9.83891 4.51867 10.1154 6.7084 8.98563 8.2975L12.5575 11.87L11.6738 12.7537L11.6731 12.7544ZM5.92813 3.62499C4.74294 3.62472 3.72043 4.45667 3.47967 5.61714C3.23891 6.77762 3.84607 7.94767 4.93355 8.4189C6.02103 8.89012 7.28994 8.53302 7.97203 7.56378C8.65412 6.59454 8.56192 5.27957 7.75125 4.415L8.12938 4.79L7.70313 4.365L7.69563 4.3575C7.228 3.88698 6.5915 3.6232 5.92813 3.62499Z" fill="#222222"/>
</svg>
