<svg width="20" height="15" viewBox="0 0 20 15" fill="none" xmlns="http://www.w3.org/2000/svg">
<path d="M10 14C8.35987 14.0204 6.7367 13.6664 5.254 12.965C4.10469 12.4042 3.07265 11.6298 2.213 10.683C1.30243 9.70411 0.585467 8.56165 0.1 7.31599L0 6.99999L0.105 6.68399C0.590815 5.43943 1.30624 4.29726 2.214 3.31699C3.07334 2.37031 4.10504 1.59586 5.254 1.03499C6.73671 0.333583 8.35988 -0.0203948 10 -5.86262e-06C11.6401 -0.0203596 13.2633 0.333616 14.746 1.03499C15.8953 1.59573 16.9274 2.37019 17.787 3.31699C18.6993 4.29455 19.4165 5.43736 19.9 6.68399L20 6.99999L19.895 7.31599C18.3262 11.3998 14.3742 14.0693 10 14ZM10 1.99999C6.59587 1.89332 3.47142 3.87509 2.117 6.99999C3.4712 10.1251 6.59579 12.1069 10 12C13.4041 12.1064 16.5284 10.1247 17.883 6.99999C16.5304 3.87357 13.4047 1.89107 10 1.99999ZM10 9.99999C8.55733 10.0095 7.30937 8.99735 7.02097 7.58377C6.73256 6.17018 7.48427 4.75002 8.81538 4.19366C10.1465 3.63729 11.6852 4.10013 12.4885 5.2985C13.2919 6.49687 13.1354 8.09607 12.115 9.11599C11.5563 9.68125 10.7948 9.99956 10 9.99999Z" fill="#2E3A59"/>
</svg>
