<svg width="22" height="22" viewBox="0 0 22 22" fill="none" xmlns="http://www.w3.org/2000/svg">
<path d="M6.58115 21.6688C4.05345 21.6688 1.77462 20.1461 0.807154 17.8109C-0.160316 15.4757 0.374067 12.7876 2.16115 11L4.81365 8.34749L6.58115 10.115L3.9299 12.7662C2.98248 13.7137 2.61247 15.0946 2.95925 16.3888C3.30603 17.683 4.31692 18.6939 5.61112 19.0406C6.90533 19.3874 8.28623 19.0174 9.23365 18.07L11.8849 15.4187L13.6524 17.1875L11.0012 19.8387C9.83124 21.0144 8.23972 21.6733 6.58115 21.6688ZM7.4649 16.3025L5.6974 14.535L14.5362 5.69624L16.3037 7.46374L7.46615 16.3012L7.4649 16.3025ZM17.1887 13.6512L15.4199 11.8837L18.0712 9.23249C19.0315 8.28791 19.4114 6.90083 19.0665 5.59872C18.7215 4.29662 17.7047 3.27956 16.4027 2.9343C15.1006 2.58904 13.7135 2.96864 12.7687 3.92874L10.1162 6.57999L8.34865 4.81249L11.0012 2.15999C13.445 -0.262547 17.3874 -0.253914 19.8206 2.17931C22.2538 4.61253 22.2624 8.55489 19.8399 10.9987L17.1887 13.65V13.6512Z" fill="#2E3A59"/>
</svg>
