<svg width="20" height="16" viewBox="0 0 20 16" fill="none" xmlns="http://www.w3.org/2000/svg">
<path d="M18 16H2C0.930516 16.032 0.0364164 15.1933 0 14.124V1.875C0.0364132 0.805809 0.930683 -0.0325688 2 2.24984e-06H18C19.0693 -0.0325688 19.9636 0.805809 20 1.875V14.125C19.963 15.1939 19.0691 16.032 18 16ZM2 2V13.989L18 14V2.011L2 2ZM11.43 12H4C4.07353 11.1721 4.46534 10.4049 5.093 9.86C5.79183 9.16672 6.73081 8.76921 7.715 8.75C8.69919 8.76921 9.63817 9.16672 10.337 9.86C10.9645 10.4051 11.3563 11.1721 11.43 12ZM16 11H13V9H16V11ZM7.715 8C7.17907 8.01863 6.65947 7.8139 6.28029 7.43471C5.9011 7.05553 5.69638 6.53593 5.715 6C5.69668 5.46416 5.9015 4.94474 6.28062 4.56562C6.65974 4.1865 7.17916 3.98168 7.715 4C8.25084 3.98168 8.77026 4.1865 9.14938 4.56562C9.5285 4.94474 9.73332 5.46416 9.715 6C9.73362 6.53593 9.5289 7.05553 9.14971 7.43471C8.77053 7.8139 8.25093 8.01863 7.715 8ZM16 7H12V5H16V7Z" fill="#2E3A59"/>
</svg>
