<svg width="79" height="64" viewBox="0 0 79 64" fill="none" xmlns="http://www.w3.org/2000/svg">
<path d="M74.3638 63.0625H3.95432C2.59703 63.0625 1.34287 62.3953 0.664238 61.3124C-0.0143899 60.2294 -0.0143809 58.8952 0.664262 57.8122L35.8671 1.80941C36.5463 0.728242 37.7994 0.0625 39.1553 0.0625C40.5111 0.0625 41.7643 0.728242 42.4434 1.80941L77.6463 57.8122C78.3246 58.8946 78.325 60.2281 77.6473 61.3109C76.9696 62.3936 75.7166 63.0612 74.36 63.0625H74.3638ZM39.161 10.5598L10.5496 56.0621H67.7799L39.161 10.5598ZM42.9411 42.0649H35.3428V24.5606H42.9411V42.0649Z" fill="#FF0000" fill-opacity="0.5"/>
<path d="M35.3618 45.5686H42.9601V52.569H35.3618V45.5686Z" fill="#FF0000" fill-opacity="0.5"/>
</svg>
