<?xml version="1.0" encoding="utf-8"?>
<!-- Generator: Adobe Illustrator 25.4.1, SVG Export Plug-In . SVG Version: 6.00 Build 0)  -->
<svg version="1.1" id="레이어_1" xmlns="http://www.w3.org/2000/svg" xmlns:xlink="http://www.w3.org/1999/xlink" x="0px"
	 y="0px" viewBox="0 0 100 100" style="enable-background:new 0 0 100 100;" xml:space="preserve">
<style type="text/css">
	.st0{fill:#FFFFFF;}
	.st1{fill:#FF6622;}
	.st2{fill:#7FC5EE;}
	.st3{fill:#3976DA;}
	.st4{fill:url(#SVGID_1_);}
	.st5{fill:url(#SVGID_00000124882494929367265310000003256557810759790743_);}
</style>
<g>
	<g>
		<path class="st0" d="M26.2,83.4c-0.6,0.5-1.3,0.8-2.1,0.8c-1.1,0-1.9-0.3-2.5-1c-0.6-0.7-0.9-1.6-0.9-2.8c0-1.3,0.3-2.3,1-3
			c0.6-0.6,1.4-0.9,2.3-0.9c1.2,0,2.2,0.4,2.7,1.2c0.3,0.5,0.5,0.9,0.5,1.4h-1.5c-0.1-0.4-0.2-0.6-0.4-0.8c-0.3-0.3-0.7-0.5-1.3-0.5
			c-0.6,0-1,0.2-1.3,0.7c-0.3,0.5-0.5,1.1-0.5,1.9c0,0.8,0.2,1.5,0.5,1.9c0.3,0.4,0.8,0.6,1.3,0.6c0.5,0,1-0.2,1.2-0.5
			c0.2-0.2,0.3-0.5,0.4-0.9h1.5C27.1,82.2,26.7,82.8,26.2,83.4z"/>
		<path class="st0" d="M32.7,82.4H30l-0.5,1.5h-1.6l2.6-7.4h1.7l2.6,7.4h-1.7L32.7,82.4z M32.3,81.1l-0.9-2.9l-1,2.9H32.3z"/>
		<path class="st0" d="M40.4,76.5v1.3h-2.2v6.1h-1.6v-6.1h-2.2v-1.3H40.4z"/>
		<path class="st0" d="M46.6,83.4c-0.6,0.5-1.3,0.8-2.1,0.8c-1.1,0-1.9-0.3-2.5-1c-0.6-0.7-0.9-1.6-0.9-2.8c0-1.3,0.3-2.3,1-3
			c0.6-0.6,1.4-0.9,2.3-0.9c1.2,0,2.2,0.4,2.7,1.2c0.3,0.5,0.5,0.9,0.5,1.4h-1.5c-0.1-0.4-0.2-0.6-0.4-0.8c-0.3-0.3-0.7-0.5-1.3-0.5
			c-0.6,0-1,0.2-1.3,0.7c-0.3,0.5-0.5,1.1-0.5,1.9c0,0.8,0.2,1.5,0.5,1.9c0.3,0.4,0.8,0.6,1.3,0.6c0.5,0,1-0.2,1.2-0.5
			c0.2-0.2,0.3-0.5,0.4-0.9h1.5C47.5,82.2,47.1,82.8,46.6,83.4z"/>
		<path class="st0" d="M53.2,83.9v-3.3h-2.9v3.3h-1.5v-7.4h1.5v2.8h2.9v-2.8h1.5v7.4H53.2z"/>
		<path class="st0" d="M61.7,82.8c0.4,0,0.7,0,0.9-0.1c0.4-0.2,0.6-0.4,0.6-0.9c0-0.2-0.1-0.4-0.3-0.6c-0.2-0.1-0.6-0.2-1-0.3
			l-0.8-0.2c-0.8-0.2-1.3-0.4-1.6-0.6c-0.5-0.3-0.7-0.9-0.7-1.6c0-0.7,0.2-1.2,0.7-1.7c0.5-0.4,1.2-0.7,2.1-0.7c0.8,0,1.4,0.2,2,0.6
			c0.6,0.4,0.8,1,0.9,1.8H63c0-0.4-0.2-0.8-0.6-0.9c-0.2-0.1-0.5-0.2-0.9-0.2c-0.4,0-0.7,0.1-1,0.2c-0.2,0.2-0.4,0.4-0.4,0.7
			c0,0.3,0.1,0.5,0.4,0.6c0.2,0.1,0.5,0.2,1,0.3l1.3,0.3c0.6,0.1,1,0.3,1.3,0.5c0.4,0.3,0.7,0.9,0.7,1.5c0,0.7-0.3,1.2-0.8,1.7
			s-1.2,0.7-2.2,0.7c-1,0-1.7-0.2-2.3-0.7c-0.6-0.4-0.8-1-0.8-1.8h1.5c0,0.3,0.1,0.6,0.3,0.8C60.7,82.7,61.1,82.8,61.7,82.8z"/>
		<path class="st0" d="M71.3,76.5v1.3h-2.2v6.1h-1.6v-6.1h-2.2v-1.3H71.3z"/>
		<path class="st0" d="M76.6,81.1v-4.6h1.6v4.6c0,0.8-0.1,1.4-0.4,1.8c-0.5,0.8-1.3,1.2-2.6,1.2c-1.3,0-2.2-0.4-2.6-1.2
			c-0.2-0.4-0.4-1.1-0.4-1.8v-4.6h1.6v4.6c0,0.5,0.1,0.9,0.2,1.1c0.2,0.4,0.6,0.6,1.2,0.6c0.6,0,1-0.2,1.2-0.6
			C76.5,81.9,76.6,81.6,76.6,81.1z"/>
		<path class="st0" d="M82.8,83.9h-3.2v-7.4h3.2c0.5,0,0.8,0.1,1.1,0.2c0.5,0.2,0.9,0.5,1.3,0.9c0.3,0.4,0.4,0.8,0.5,1.2
			c0.1,0.4,0.1,0.8,0.1,1.2c0,1-0.2,1.8-0.6,2.5C84.8,83.4,83.9,83.9,82.8,83.9z M84,78.4c-0.2-0.4-0.7-0.6-1.4-0.6h-1.4v4.8h1.4
			c0.7,0,1.2-0.4,1.5-1.1c0.2-0.4,0.2-0.9,0.2-1.4C84.3,79.4,84.2,78.8,84,78.4z"/>
		<path class="st0" d="M93,76.5l-2.5,4.6v2.8H89v-2.8l-2.6-4.6h1.8l1.5,3.2l1.5-3.2H93z"/>
		<path class="st0" d="M96.6,82.8c0.4,0,0.7,0,0.9-0.1c0.4-0.2,0.6-0.4,0.6-0.9c0-0.2-0.1-0.4-0.3-0.6c-0.2-0.1-0.6-0.2-1-0.3
			L96,80.8c-0.8-0.2-1.3-0.4-1.6-0.6c-0.5-0.3-0.7-0.9-0.7-1.6c0-0.7,0.2-1.2,0.7-1.7c0.5-0.4,1.2-0.7,2.1-0.7c0.8,0,1.4,0.2,2,0.6
			c0.6,0.4,0.8,1,0.9,1.8h-1.5c0-0.4-0.2-0.8-0.6-0.9c-0.2-0.1-0.5-0.2-0.9-0.2c-0.4,0-0.7,0.1-1,0.2c-0.2,0.2-0.4,0.4-0.4,0.7
			c0,0.3,0.1,0.5,0.4,0.6c0.2,0.1,0.5,0.2,1,0.3l1.3,0.3c0.6,0.1,1,0.3,1.3,0.5c0.4,0.3,0.7,0.9,0.7,1.5c0,0.7-0.3,1.2-0.8,1.7
			c-0.5,0.4-1.2,0.7-2.2,0.7c-1,0-1.7-0.2-2.3-0.7c-0.6-0.4-0.8-1-0.8-1.8H95c0,0.3,0.1,0.6,0.3,0.8C95.6,82.7,96,82.8,96.6,82.8z"
			/>
	</g>
	<g>
		<g>
			<g>
				<polygon class="st1" points="96.9,32.7 93.2,30.6 89.6,32.7 89.6,26.4 96.9,26.4 				"/>
			</g>
		</g>
		<g>
			<path class="st0" d="M84.7,39.3H67.9c-4.1,0-7.5-3.5-7.5-7.8s3.4-7.8,7.5-7.8h29v-7.8h-29c-8.5,0-15.3,7-15.3,15.6
				s6.9,15.6,15.3,15.6h16.8c4.1,0,7.5,3.5,7.5,7.8s-3.4,7.8-7.5,7.8H62.5c-3.1,3.5-7,6.2-11.3,7.8h33.4c8.5,0,15.3-7,15.3-15.6
				S93.1,39.3,84.7,39.3z"/>
		</g>
		<g>
			<path class="st0" d="M58.8,50.4c-1.9,4.8-5.6,8.6-10.4,10.7c-4.8,2.1-10.1,2.1-14.9,0.2c-10-4-14.9-15.3-10.9-25.3
				c1.9-4.8,5.6-8.6,10.4-10.7c4.8-2.1,10.1-2.1,14.9-0.2l2.9-7.3c-6.8-2.7-14.2-2.6-20.9,0.3c-6.7,2.9-11.9,8.2-14.6,15
				c-3.6,9.1-2,19.1,3.5,26.4L0,78.3l5.5,5.5l18.8-18.8c1.9,1.4,4,2.6,6.2,3.5c3.3,1.3,6.7,1.9,10.1,1.9c10.9,0,21.1-6.5,25.4-17.2
				L58.8,50.4z"/>
		</g>
	</g>
</g>
</svg>
