<svg xmlns="http://www.w3.org/2000/svg" xmlns:xlink="http://www.w3.org/1999/xlink" viewBox="0 0 151.85 66.75"><defs><style>.cls-1,.cls-4{fill:none;}.cls-2{clip-path:url(#clip-path);}.cls-3{fill:url(#linear-gradient);}.cls-4{stroke:#727171;stroke-miterlimit:10;}.cls-5{clip-path:url(#clip-path-2);}.cls-6{fill:url(#linear-gradient-2);}.cls-7{fill:#f28e00;}.cls-8{fill:#727171;}.cls-9{fill:#fdd000;}.cls-10{fill:#aa6223;}</style><clipPath id="clip-path"><path class="cls-1" d="M137.22,11.2l.23,0-.23,0M21.77,11.05,21.54,11l.23.09m116,0A2.34,2.34,0,0,0,138,11a2.34,2.34,0,0,1-.24.09"/></clipPath><linearGradient id="linear-gradient" x1="-143.87" y1="799.56" x2="-142.91" y2="799.56" gradientTransform="matrix(121.85, 0, 0, -121.85, 17552.05, 97437.98)" gradientUnits="userSpaceOnUse"><stop offset="0" stop-color="#ebc181"/><stop offset="0.25" stop-color="#daad65"/><stop offset="0.5" stop-color="#ce9e51"/><stop offset="0.76" stop-color="#c79544"/><stop offset="1" stop-color="#c49240"/></linearGradient><clipPath id="clip-path-2"><path class="cls-1" d="M137.22,11.2l.23,0-.23,0m.57-.15A2.34,2.34,0,0,0,138,11a2.34,2.34,0,0,1-.24.09"/></clipPath><linearGradient id="linear-gradient-2" x1="-149.22" y1="1279.34" x2="-148.27" y2="1279.34" gradientTransform="matrix(0.85, 0, 0, -0.85, 264.57, 1103)" xlink:href="#linear-gradient"/></defs><g id="레이어_2" data-name="레이어 2"><g id="레이어_1-2" data-name="레이어 1"><g class="cls-2"><rect class="cls-3" x="21.54" y="10.96" width="116.49" height="0.24"/></g><path class="cls-4" d="M21.77,11.05,21.54,11Zm116,0A2.34,2.34,0,0,0,138,11,2.34,2.34,0,0,1,137.79,11.05Zm-.57.15.23,0Z"/><g class="cls-5"><rect class="cls-6" x="137.22" y="10.96" width="0.81" height="0.24"/></g><path class="cls-4" d="M137.79,11.05A2.34,2.34,0,0,0,138,11,2.34,2.34,0,0,1,137.79,11.05Zm-.57.15.23,0Z"/><path class="cls-7" d="M150.46,8.41c.88-.79,1.09-2.35-1.18-2.11l-28,3.05s0,0,0,.06c0-.74-.71-1.12-2.82-.9-.87.08-5.24.46-9.38.8,0,0-1.63-.3-2.46-.33-.6,0-2.72.09-3.71,0s-3.05-1.09-4.34-1.27-3,0-3.94,1.27a9.08,9.08,0,0,0-1.27,2.9l-3.68,1.47V7.29L76,.71h0L62.36,7.29v6.1l-3.87-1.55A9.7,9.7,0,0,0,57.24,9c-.92-1.32-2.65-1.46-3.94-1.27S50,9,49,9,45.85,9,45.24,9c-.82,0-2.46.34-2.45.33-4.14-.34-8.51-.72-9.38-.8-2.11-.22-2.87.16-2.82.9,0,0,0,0,0-.06l-28-3C.31,6.06.52,7.62,1.4,8.41a49.43,49.43,0,0,0,6.09,4.67,5.46,5.46,0,0,0,.59.3l-.07,0c-1.55,0-1.22,1.12-.91,1.63A9.72,9.72,0,0,0,12,18.28a12.23,12.23,0,0,0,1.71.42h0c-1.3.11-1.31.88-.76,1.34a22.68,22.68,0,0,0,4.74,2.32,10.46,10.46,0,0,0,2.5.68l-.15,0c-1.26.53.43,2.14,4.52,3a7.93,7.93,0,0,0,3,.05c-.54.51,0,1.11,1.18,1.54,2.36.88,5.17.42,8.22-.49a41.26,41.26,0,0,0,4.08-1.47l-.07,0c-.56.71.22,1.47,2.42,1.3l6.59,2.91-5.81,3.64v11l10,4.56a2.17,2.17,0,0,0,0,.77,2.28,2.28,0,0,0,.57,2.42s0,0-.07-.05v0c-.16.41-.59,2.24-.75,2.94a2,2,0,0,0-1.39,1.11L50,55.16a1.78,1.78,0,0,0-2.16-1v0S45,52.6,44.16,52a2.4,2.4,0,0,0-3.31,1.13c-.8,1.5-.39,2.74.61,3.11,1.66.61,4.41,1.55,4.41,1.55l0,0c0,.52,1.13,1.4,2.32.89L52,60.27c0,.35,0,.67,0,.93a1.58,1.58,0,0,0,2,1.73h0a1.15,1.15,0,0,0,1.62.61,1.2,1.2,0,0,0,1.92.1c.25-.25.48-.47.68-.69l7.26,3.11L67.07,63l-6.93-3.18a2.16,2.16,0,0,0,.06-2.07,1.36,1.36,0,0,1,.13.24,6.55,6.55,0,0,0,2.73-2.88h0a2.12,2.12,0,0,0,1.66-.4,2.91,2.91,0,0,0,.58-.52L76,59.06h0L86.69,54.2a3.52,3.52,0,0,0,.57.5,2.11,2.11,0,0,0,1.65.4h0A6.66,6.66,0,0,0,91.64,58a1,1,0,0,1,.14-.24,2.13,2.13,0,0,0,.06,2.07L84.9,63l1.61,3.06,7.26-3.11c.2.22.42.44.68.69a1.19,1.19,0,0,0,1.91-.1h0a1.14,1.14,0,0,0,1.62-.6h0a1.58,1.58,0,0,0,2-1.73c0-.26,0-.58,0-.93l3.77-1.61c1.18.51,2.34-.37,2.32-.89l0,0s2.75-.94,4.41-1.55c1-.37,1.41-1.61.61-3.11A2.4,2.4,0,0,0,107.82,52c-.89.57-3.69,2.12-3.69,2.12v0a1.78,1.78,0,0,0-2.15,1l-2.64,1.21A2,2,0,0,0,98,55.26c-.17-.7-.59-2.53-.75-2.94l0,0-.06.05a2.26,2.26,0,0,0,.56-2.42,1.86,1.86,0,0,0,0-.75l10.06-4.58v-11L102,29.93l6.57-2.9c2.1.13,2.84-.62,2.28-1.31l0,0a38.29,38.29,0,0,0,4,1.46c3,.91,5.86,1.37,8.22.49,1.15-.43,1.72-1,1.17-1.54a8,8,0,0,0,3-.05c4.08-.9,5.78-2.51,4.52-3l-.17,0a10.88,10.88,0,0,0,2.53-.68A23.08,23.08,0,0,0,138.88,20c.54-.46.53-1.23-.77-1.34h0a12.59,12.59,0,0,0,1.71-.42A9.63,9.63,0,0,0,144.75,15c.31-.51.64-1.68-.9-1.63l-.07,0a4.56,4.56,0,0,0,.58-.3,49.45,49.45,0,0,0,6.1-4.67"/><path class="cls-8" d="M65.47,66.75a.75.75,0,0,1-.33-.07L58.41,63.8l-.33.32a2.2,2.2,0,0,1-2.74.24,2,2,0,0,1-1.75-.67,2.31,2.31,0,0,1-2.42-2.49c0-.15,0-.31,0-.49l-3-1.28a2.81,2.81,0,0,1-2.56-.63,2.21,2.21,0,0,1-.34-.43c-.76-.27-2.79-1-4.12-1.45a2.25,2.25,0,0,1-1.31-1.24A3.59,3.59,0,0,1,43.09,51a2.75,2.75,0,0,1,1.51.43c.73.46,2.81,1.62,3.46,2a2.52,2.52,0,0,1,2.53,1.2l1.77.82a2.67,2.67,0,0,1,1-.75c.23-1,.41-1.77.55-2.24a3.32,3.32,0,0,1-.42-2.55,1.79,1.79,0,0,1,0-.34l-9.58-4.35a.7.7,0,0,1-.43-.63v-11A.68.68,0,0,1,43.8,33l4.72-3-5.21-2.3c-2,.12-2.77-.52-3-.94-1.06.41-2.06.76-3,1-4,1.18-6.54,1.3-8.75.47a2.82,2.82,0,0,1-1.8-1.38,8.5,8.5,0,0,1-2.32-.17c-2.56-.57-5.35-1.69-5.51-3.13,0,0,0-.08,0-.13A11.37,11.37,0,0,1,17.42,23a23.72,23.72,0,0,1-5-2.45A1.42,1.42,0,0,1,11.93,19s0,0,0,0l-.17-.06c-2.43-.81-4.52-2.23-5.35-3.6a1.92,1.92,0,0,1-.13-2l.09-.13A55.17,55.17,0,0,1,.85,8.91,2.15,2.15,0,0,1,.13,6.58c.19-.42.76-1.16,2.53-1C3.8,5.72,14.18,6.85,22.1,7.72L30,8.58a.87.87,0,0,1,.19-.23c.55-.54,1.51-.72,3.26-.54l9.26.79a21.94,21.94,0,0,1,2.46-.32c.26,0,.8,0,1.42,0,.8,0,1.73,0,2.29,0a9.7,9.7,0,0,0,1.87-.56,12.7,12.7,0,0,1,2.39-.71,7.23,7.23,0,0,1,1-.07,4.25,4.25,0,0,1,3.68,1.66,9.12,9.12,0,0,1,1.24,2.69l2.45,1v-5A.69.69,0,0,1,62,6.67L75.65.08A.82.82,0,0,1,76.16,0a1.11,1.11,0,0,1,.29.1L90,6.67a.7.7,0,0,1,.41.62v5l2.26-.9A9.08,9.08,0,0,1,94,8.64,4.25,4.25,0,0,1,97.65,7a7.09,7.09,0,0,1,1,.07,12.57,12.57,0,0,1,2.4.71,9.86,9.86,0,0,0,1.86.56c.57,0,1.5,0,2.29,0,.62,0,1.16,0,1.42,0a22.12,22.12,0,0,1,2.47.32c4.19-.34,8.41-.71,9.25-.79,1.74-.18,2.71,0,3.26.53a1.21,1.21,0,0,1,.2.24l8.64-.94,18.73-2c1.76-.19,2.35.55,2.54,1A2.16,2.16,0,0,1,151,8.91a53.36,53.36,0,0,1-5.54,4.33.31.31,0,0,1,.1.13,1.87,1.87,0,0,1-.13,2c-.82,1.37-2.91,2.78-5.34,3.6l-.17.06v0a1.4,1.4,0,0,1-.51,1.55,24.22,24.22,0,0,1-5,2.45,14.11,14.11,0,0,1-1.47.48v.13c-.16,1.44-2.95,2.56-5.52,3.13a8.43,8.43,0,0,1-2.31.17,2.85,2.85,0,0,1-1.8,1.38c-2.21.83-4.78.72-8.75-.47-1-.28-2-.63-3-1-.26.41-1,1-2.89.95L103.5,30l4.72,3a.68.68,0,0,1,.34.58v11a.7.7,0,0,1-.43.63l-9.62,4.38,0,.31a3.28,3.28,0,0,1-.43,2.55c.17.56.39,1.5.56,2.24a2.67,2.67,0,0,1,1,.75l1.78-.82a2.47,2.47,0,0,1,2.52-1.2c.65-.36,2.73-1.52,3.46-2a2.83,2.83,0,0,1,1.51-.42,3.6,3.6,0,0,1,3.24,4.64,2.29,2.29,0,0,1-1.32,1.25c-1.32.49-3.34,1.18-4.11,1.45a1.7,1.7,0,0,1-.35.43,2.8,2.8,0,0,1-2.55.63l-3,1.28v.49a2.31,2.31,0,0,1-2.41,2.49,2,2,0,0,1-1.76.67,2.18,2.18,0,0,1-2.73-.24l-.33-.32-6.73,2.88a.8.8,0,0,1-1-.33l-1.6-3.06a.68.68,0,0,1,.35-.93l6.35-2.91a3.15,3.15,0,0,1-.13-1.14,7.25,7.25,0,0,1-2.32-2.47,3.15,3.15,0,0,1-1.67-.58l-.27-.2L76.43,59.65a.88.88,0,0,1-.35.1,1,1,0,0,1-.42-.06L65.47,55.05a3.3,3.3,0,0,1-.3.22,3.1,3.1,0,0,1-1.65.57,7.25,7.25,0,0,1-2.32,2.47,3.13,3.13,0,0,1-.13,1.14l6.34,2.91a.68.68,0,0,1,.36.93l-1.61,3.06A.77.77,0,0,1,65.47,66.75Zm-7.26-4.52a.92.92,0,0,1,.32.07l6.57,2.81.94-1.8-6.25-2.87a.68.68,0,0,1-.38-.87c.27-.66.32-1.19.14-1.44a.67.67,0,0,1,.22-1,.88.88,0,0,1,.67-.08,6.05,6.05,0,0,0,1.92-2.26.8.8,0,0,1,.86-.4,1.33,1.33,0,0,0,1-.27,2.34,2.34,0,0,0,.44-.4.84.84,0,0,1,1-.19L76,58.27l10.34-4.7a.84.84,0,0,1,1,.18,1.75,1.75,0,0,0,.43.39,1.28,1.28,0,0,0,1,.27.81.81,0,0,1,.87.4,6,6,0,0,0,1.92,2.26.85.85,0,0,1,.66.08.67.67,0,0,1,.22,1c-.06.09-.25.47.14,1.44a.67.67,0,0,1-.37.87l-6.25,2.87.93,1.8,6.57-2.81a.82.82,0,0,1,.93.19c.19.21.39.42.64.65s.6.2.64.12a.75.75,0,0,1,.49-.41.85.85,0,0,1,.66.1.18.18,0,0,0,.09,0,.45.45,0,0,0,.36-.29.8.8,0,0,1,.87-.45l.11,0c1,.21,1-.86,1-1.06s0-.56,0-.89a.68.68,0,0,1,.44-.67L103.44,58a.82.82,0,0,1,.65,0,1.18,1.18,0,0,0,1.24-.31.67.67,0,0,1,.59-.68.61.61,0,0,1,.27,0c.8-.28,2.76-.95,4-1.42a.81.81,0,0,0,.46-.45,2.06,2.06,0,0,0-.26-1.7,1.77,1.77,0,0,0-1.54-1,1.21,1.21,0,0,0-.62.16c-.81.52-3,1.77-3.61,2.08a.84.84,0,0,1-.66.19c-.69-.11-1.07,0-1.3.56a.72.72,0,0,1-.37.36L99.68,57a.77.77,0,0,1-.58,0,.79.79,0,0,1-.46-.35,1.29,1.29,0,0,0-.79-.73.76.76,0,0,1-.67-.56c-.25-1.14-.48-2.08-.62-2.56a.27.27,0,0,1-.07-.08.66.66,0,0,1,.18-1l0,0a1.81,1.81,0,0,0,.23-1.66.58.58,0,0,1,0-.32,1.43,1.43,0,0,0,0-.51.69.69,0,0,1,.42-.71L107,44.17V33.94l-5.49-3.43a.66.66,0,0,1-.32-.63.68.68,0,0,1,.43-.58l6.57-2.91a1,1,0,0,1,.39-.07,3.16,3.16,0,0,0,1.58-.18.65.65,0,0,1-.08-.75.8.8,0,0,1,1-.33,39,39,0,0,0,4,1.44c3.57,1.06,5.83,1.2,7.69.5a2.49,2.49,0,0,0,.85-.46.67.67,0,0,1-.06-.75.78.78,0,0,1,.8-.37,7.08,7.08,0,0,0,2.73,0,9.18,9.18,0,0,0,4.21-1.73.71.71,0,0,1-.42-.53.72.72,0,0,1,.65-.78h.1a10.41,10.41,0,0,0,2.23-.61,23.25,23.25,0,0,0,4.51-2.2l0-.05a1.72,1.72,0,0,0-.34-.07.79.79,0,0,1-.63-.37.66.66,0,0,1,.13-.83A1,1,0,0,1,138,18a11.92,11.92,0,0,0,1.56-.38,9,9,0,0,0,4.52-3,.9.9,0,0,0,.16-.58l-.23,0a.79.79,0,0,1-.9-.3.67.67,0,0,1,.24-.95l.08-.05h0l.07,0c.1-.05.27-.13.42-.22a49.2,49.2,0,0,0,6-4.59c.32-.29.44-.66.37-.79s-.36-.18-.92-.12L130.64,9l-9,1a.84.84,0,0,1-.41.08.73.73,0,0,1-.72-.69.31.31,0,0,1,0-.09s-.18-.17-1-.17c-.27,0-.6,0-1,0-.85.09-5.15.46-9.39.82a1.33,1.33,0,0,1-.28,0,19.6,19.6,0,0,0-2.28-.3h-.2l-1.11,0c-.85,0-1.82,0-2.42,0a9.26,9.26,0,0,1-2.35-.65,12.78,12.78,0,0,0-2.06-.63,5.41,5.41,0,0,0-.79,0,2.74,2.74,0,0,0-2.39,1,8.27,8.27,0,0,0-1.09,2.45l-.08.26a.7.7,0,0,1-.44.45L90,14a.84.84,0,0,1-.74,0,.69.69,0,0,1-.35-.59V7.71L76,1.5,63.13,7.71v5.68a.69.69,0,0,1-.35.59A.84.84,0,0,1,62,14l-3.87-1.54a.76.76,0,0,1-.43-.45l-.05-.17a8.41,8.41,0,0,0-1.1-2.47,2.71,2.71,0,0,0-2.38-1,5.32,5.32,0,0,0-.79,0,12.49,12.49,0,0,0-2.06.63A9.21,9.21,0,0,1,49,9.72c-.59,0-1.56,0-2.41,0l-1.12,0h-.19A19.36,19.36,0,0,0,43,10l-.2,0c-4.21-.35-8.59-.73-9.47-.82-.36,0-.69,0-1,0-.81,0-1,.16-1,.16v0h0a.75.75,0,0,1-.71.74.91.91,0,0,1-.41-.07l-8.32-.91L2.49,7c-.58-.06-.89,0-.93.12a.93.93,0,0,0,.38.79,48.74,48.74,0,0,0,6,4.58,3.4,3.4,0,0,0,.5.26h0a.68.68,0,0,1,.35.95.81.81,0,0,1-.9.36.87.87,0,0,0-.27,0,1.27,1.27,0,0,0,.18.56,9,9,0,0,0,4.53,3,13.08,13.08,0,0,0,1.56.39.76.76,0,0,1,.3.1.68.68,0,0,1,.29.86.76.76,0,0,1-.69.43,2,2,0,0,0-.33.07l.06.05A22.68,22.68,0,0,0,18,21.72a9.92,9.92,0,0,0,2.33.62.69.69,0,0,1,.24,1.33,9.43,9.43,0,0,0,4.18,1.71,7.14,7.14,0,0,0,2.74,0,.79.79,0,0,1,.82.37.67.67,0,0,1-.07.75,2.49,2.49,0,0,0,.85.46c1.86.7,4.12.56,7.69-.5a41.61,41.61,0,0,0,3.93-1.42l.09,0a.81.81,0,0,1,1,.37.67.67,0,0,1-.12.74,3.59,3.59,0,0,0,1.7.17.77.77,0,0,1,.4.07l6.59,2.91a.73.73,0,0,1,.44.58.68.68,0,0,1-.34.63L45,33.94V44.17l9.59,4.36a.7.7,0,0,1,.43.71,1.27,1.27,0,0,0,0,.52.62.62,0,0,1,0,.33,1.89,1.89,0,0,0,.21,1.64l0,0,.1.07a.65.65,0,0,1,.15,1l-.12.12c-.18.63-.45,1.84-.58,2.36l0,.15a.77.77,0,0,1-.67.55,1.34,1.34,0,0,0-.79.73.77.77,0,0,1-.45.35.8.8,0,0,1-.59,0l-2.64-1.21a.7.7,0,0,1-.36-.36c-.24-.51-.62-.67-1.31-.56a.82.82,0,0,1-.71-.22c-.64-.36-2.78-1.55-3.56-2a1.24,1.24,0,0,0-.62-.16,1.77,1.77,0,0,0-1.55,1,2.05,2.05,0,0,0-.25,1.7.81.81,0,0,0,.46.45c1.38.51,3.55,1.25,4.2,1.47l.13,0a.7.7,0,0,1,.58.69,1.47,1.47,0,0,0,.81.31,1.19,1.19,0,0,0,.41-.08.84.84,0,0,1,.66,0l3.77,1.61a.7.7,0,0,1,.44.67c0,.32,0,.64,0,.89s.09,1.26,1,1.06l.06,0a.78.78,0,0,1,.91.44.51.51,0,0,0,.38.29,1,1,0,0,1,.7-.1.77.77,0,0,1,.53.39c0,.08.38.12.64-.12s.46-.44.65-.65A.79.79,0,0,1,58.21,62.23Z"/><path class="cls-7" d="M24.21,22.84l-.4.07.4-.07"/><path class="cls-7" d="M21.56,13.9h0l2.49,0L13.91,14c1.53,0,4.05-.05,6.83-.09h.82"/><path class="cls-7" d="M19.91,19h0"/><path class="cls-7" d="M24.44,13.86h0"/><path class="cls-7" d="M34.08,13.69h0l.16.09-.16-.08"/><path class="cls-7" d="M33.63,13.38a1.11,1.11,0,0,1-.16-.12,1.11,1.11,0,0,0,.16.12"/><path class="cls-7" d="M43.22,20l0,0,0,0"/><path class="cls-7" d="M38.5,17.6h0l.39.07-.22,0h0l-.15,0Z"/><path class="cls-7" d="M37.53,17.36l.14.05-.14-.05"/><path class="cls-7" d="M39.17,17.69l.42,0-.42,0"/><polygon class="cls-7" points="107.41 19.86 107.4 19.86 107.42 19.86 107.41 19.86"/><path class="cls-7" d="M105.52,19.61l-.31-.06.2,0-.23-.05.34.07h0"/><path class="cls-7" d="M105,19.5s0,0,0,0l0,0Z"/><path class="cls-7" d="M106.65,19.8h0l-.18,0,.18,0"/><path class="cls-7" d="M106.35,19.76h0l.27,0-.27,0"/><path class="cls-7" d="M106.87,19.82l.32,0-.32,0Z"/><path class="cls-7" d="M107.24,19.85h0"/><path class="cls-7" d="M100.6,14.23l.14-.15-.14.15Z"/><path class="cls-7" d="M46.9,19.49h0"/><path class="cls-7" d="M51.35,14.32c-.08-.08-.16-.15-.23-.23.07.08.15.15.23.23Z"/><path class="cls-7" d="M45,19.82l-.24,0,.24,0Z"/><path class="cls-7" d="M45.21,19.8l.18,0-.19,0Z"/><path class="cls-7" d="M44.62,19.85h0Z"/><path class="cls-7" d="M44.45,19.87h0Z"/><path class="cls-7" d="M43.63,19.86h0"/><path class="cls-7" d="M43.92,20.53l-.06,0,.06,0"/><path class="cls-7" d="M43.6,20.3a.05.05,0,0,1,0,0,.05.05,0,0,0,0,0"/><polyline class="cls-7" points="43.34 20.11 43.34 20.11 43.34 20.11"/><path class="cls-7" d="M44.34,20.77h0l0,0,.07,0"/><path class="cls-7" d="M44.74,21l-.17-.08.17.08"/><path class="cls-7" d="M45.2,21.16,45,21.08l.21.08"/><path class="cls-7" d="M45.51,19.76l-.25,0,.25,0h0"/><path class="cls-7" d="M46.66,19.54l-.21.05.2,0-.32.06h0l.34-.07"/><path class="cls-7" d="M47,19.48l.15,0-.15,0"/><path class="cls-7" d="M106.87,21.08l-.21.08.21-.08"/><path class="cls-7" d="M107.29,20.89l-.17.08.17-.08"/><path class="cls-7" d="M108.3,20.28l0,0,0,0"/><path class="cls-7" d="M108,20.49l-.06,0,.06,0"/><path class="cls-7" d="M108.05,19.87h0"/><path class="cls-7" d="M108.51,17.58l.65.07-.65-.07"/><path class="cls-7" d="M108.9,19.79l-.2,0,.2,0"/><path class="cls-7" d="M100.94,13.83a4.33,4.33,0,0,0,.3-.41.75.75,0,0,1-.07.12,2.26,2.26,0,0,1-.23.29"/><path class="cls-7" d="M101.37,13.22a5.52,5.52,0,0,0,.34-.64,5.52,5.52,0,0,1-.34.64"/><path class="cls-7" d="M101.78,12.42a4.6,4.6,0,0,0,.25-.65h0a4.6,4.6,0,0,1-.25.65"/><path class="cls-7" d="M50.15,12.59a6.25,6.25,0,0,0,.33.63,6.25,6.25,0,0,1-.33-.63"/><path class="cls-7" d="M49.82,11.77h0a6.23,6.23,0,0,0,.24.65c-.09-.21-.17-.42-.25-.65"/><path class="cls-7" d="M50.62,13.43c.09.14.19.27.29.4-.07-.1-.15-.18-.22-.29a.67.67,0,0,1-.07-.11"/><path class="cls-7" d="M42.69,17.65l.65-.07-.65.07"/><path class="cls-7" d="M43.16,19.82l-.21,0,.21,0"/><path class="cls-7" d="M42,17.71l.49-.05-.49.05"/><path class="cls-7" d="M42.48,19.7l-.19,0,.19,0"/><path class="cls-7" d="M40.68,17.76h0"/><path class="cls-7" d="M41.36,17.75l.45,0-.45,0"/><path class="cls-7" d="M41.63,19.47l0,0,0,0"/><path class="cls-7" d="M41,19.19l-.21-.11.21.11"/><path class="cls-7" d="M39.92,17.75h0"/><path class="cls-7" d="M40.29,18.83l-.24-.15.24.15"/><path class="cls-7" d="M39.57,18.36l-.22-.16.22.16"/><path class="cls-7" d="M39.87,14.64h0"/><path class="cls-7" d="M40.31,14.61h0"/><path class="cls-7" d="M39.41,14.67h0"/><path class="cls-7" d="M39.11,14.69h0"/><path class="cls-7" d="M36.08,16.68l.36.22-.36-.22"/><path class="cls-7" d="M35.49,16.21a5.07,5.07,0,0,0,.44.37,5.07,5.07,0,0,1-.44-.37"/><path class="cls-7" d="M35.07,15.76l.27.31-.27-.31"/><path class="cls-7" d="M36.46,14.54l.26,0-.26,0"/><path class="cls-7" d="M34.07,13.67a2,2,0,0,0,.21.12h0a1.76,1.76,0,0,1-.2-.12Z"/><path class="cls-7" d="M34.56,15c-.07-.12-.12-.25-.18-.38.06.13.11.26.18.38"/><path class="cls-7" d="M34.74,14l.29.13L34.74,14"/><path class="cls-7" d="M35.33,14.25l.26.08-.26-.08"/><path class="cls-7" d="M35.9,14.41l.25.07-.25-.07"/><path class="cls-7" d="M34.91,15.56l-.21-.32.21.32"/><path class="cls-7" d="M36.65,17l.28.13-.11,0L36.65,17"/><path class="cls-7" d="M37,14.62l.26,0-.26,0"/><path class="cls-7" d="M37.58,14.67l.24,0-.24,0"/><path class="cls-7" d="M40.9,19.35l-.08,0,.08,0"/><path class="cls-7" d="M40.16,19.52l-.1,0,.1,0"/><path class="cls-7" d="M39.87,19.58l-.12,0,.12,0"/><path class="cls-7" d="M45.46,21.25l.14,0h0l-.14-.05"/><path class="cls-7" d="M106.38,21.26h0a0,0,0,0,0,0,0Z"/><path class="cls-7" d="M107.55,20.76h0l.08,0,0,0,2.43.89-.41-.15-2-.74"/><path class="cls-7" d="M102.08,11.65h0v0"/><path class="cls-7" d="M49.78,11.65h0v0"/><path class="cls-7" d="M40.87,14.55h0"/><path class="cls-7" d="M32.33,12.13a1.59,1.59,0,0,0,.13.13,1.59,1.59,0,0,1-.13-.13"/><path class="cls-7" d="M31.9,11.63l.12.15-.12-.15"/><path class="cls-7" d="M31.51,11.16a1.58,1.58,0,0,1,.12.15,1.58,1.58,0,0,0-.12-.15"/><path class="cls-7" d="M31.19,10.72l.1.15-.1-.15"/><path class="cls-7" d="M30.92,10.31l.09.14-.09-.14"/><path class="cls-7" d="M30.73,9.93l.06.14-.06-.14"/><path class="cls-7" d="M30.65,9.72l0-.13,0,.13"/><path class="cls-7" d="M34.05,13.71a3.93,3.93,0,0,0,.22.66,4.26,4.26,0,0,1-.22-.66l-4.64.07-4.72.07,9.36-.14"/><path class="cls-7" d="M13.35,14h0"/><path class="cls-7" d="M8.45,13.53l.29.11-.29-.11"/><path class="cls-7" d="M9.13,13.74l.27.07-.27-.07"/><path class="cls-7" d="M9.78,13.88l.27,0-.27,0"/><path class="cls-7" d="M10.43,14l.26,0-.26,0"/><path class="cls-7" d="M11,14h0"/><path class="cls-7" d="M11.6,14h0Z"/><path class="cls-7" d="M14.56,18.83h0"/><path class="cls-7" d="M16.24,19h0"/><path class="cls-7" d="M18,19.08h0Z"/><path class="cls-7" d="M20.73,23.09h0"/><path class="cls-7" d="M21.51,23.12h0"/><path class="cls-7" d="M22.39,23.09c.31,0,.64-.06,1-.11l.4-.07-.4.07c-.34.05-.67.08-1,.11"/><path class="cls-7" d="M24.25,22.84l1.32-.24.15,0,.37-.07.21,0,.36-.07.24-.05.36-.07.31-.06.3-.06.42-.09.23,0,.58-.12.09,0C33.31,21,38.12,20,40.05,19.54c-2.82.63-11.83,2.62-15.8,3.3"/><path class="cls-7" d="M33.17,24.7l-1.26.4,1.26-.4"/><path class="cls-7" d="M57.48,56.06,57.22,56l.26.07a1.23,1.23,0,0,1,.23.11,1.23,1.23,0,0,0-.23-.11"/><path class="cls-7" d="M57,56h0"/><path class="cls-7" d="M56.72,56h0"/><path class="cls-7" d="M56.5,56h0"/><path class="cls-7" d="M55.72,56.54a.76.76,0,0,0-.09.18.76.76,0,0,1,.09-.18"/><path class="cls-7" d="M57.8,56.22l.11.08-.11-.08"/><path class="cls-7" d="M58.17,56.63l0-.05,0,.05"/><path class="cls-7" d="M58,56.39l.05.06L58,56.39"/><path class="cls-7" d="M58.28,57.67v0"/><path class="cls-7" d="M59.94,57.49a.88.88,0,0,0-.23-.14.88.88,0,0,1,.23.14"/><path class="cls-7" d="M54.34,55.27h0"/><path class="cls-7" d="M60,57.53a.49.49,0,0,1,.14.15.49.49,0,0,0-.14-.15"/><path class="cls-7" d="M61.57,53.81a.49.49,0,0,1,0-.11.49.49,0,0,0,0,.11"/><path class="cls-7" d="M61.74,54.13a.41.41,0,0,0-.05-.09.41.41,0,0,1,.05.09"/><path class="cls-7" d="M61.44,53.45a.61.61,0,0,1,0-.11.61.61,0,0,0,0,.11"/><path class="cls-7" d="M62.16,54.64l.07.06-.07-.06"/><path class="cls-7" d="M62.5,54.88l-.1-.05.1.05"/><path class="cls-7" d="M62.69,55l.08,0-.08,0"/><path class="cls-7" d="M92.27,57.35a.79.79,0,0,0-.23.14.79.79,0,0,1,.23-.14"/><path class="cls-7" d="M94,56.39l-.06.06.06-.06"/><path class="cls-7" d="M93.83,56.58s0,0,0,.05,0,0,0-.05"/><path class="cls-7" d="M94.18,56.22l-.1.08a.44.44,0,0,1,.1-.08"/><path class="cls-7" d="M94.5,56.06l.26-.07-.26.07-.24.11.24-.11"/><path class="cls-7" d="M95.41,56h0"/><path class="cls-7" d="M95.26,56h0"/><path class="cls-7" d="M94.86,56h0"/><path class="cls-7" d="M96.26,56.54a1.51,1.51,0,0,1,.09.18,1.51,1.51,0,0,0-.09-.18"/><path class="cls-7" d="M96.17,56.42h0s0,0,0,0,0,0,0,0"/><path class="cls-7" d="M90.29,54l-.05.1.05-.1"/><path class="cls-7" d="M90.45,53.7l0,.12,0-.12"/><path class="cls-7" d="M90.57,53.33a.34.34,0,0,1,0,.12.34.34,0,0,0,0-.12"/><path class="cls-7" d="M89.29,55l-.09,0,.09,0"/><path class="cls-7" d="M89.48,54.88l.09-.05-.09.05"/><path class="cls-7" d="M89.74,54.7l.08-.07-.08.07"/><path class="cls-7" d="M90.05,54.4l0,0,0,0"/><path class="cls-7" d="M92,57.53s-.1.09-.14.15.1-.1.14-.15"/><path class="cls-7" d="M97.68,55.26h0"/><polygon class="cls-9" points="110.44 26.18 97.37 10.31 89.67 13.39 89.67 7.29 76.01 0.7 62.36 7.29 62.36 13.39 54.65 10.31 41.58 26.18 50.05 29.93 44.24 33.56 44.24 44.6 76.01 59.05 107.78 44.6 107.78 33.56 101.96 29.93 110.44 26.18"/><path class="cls-8" d="M76,59.45l-.17-.08-32-14.55V33.38L49.29,30,41,26.31,54.53,9.87l7.44,3V7.08L76,.3l14,6.78v5.77l7.44-3L111,26.31,102.73,30l5.44,3.4V44.82l-.22.1ZM44.62,44.39,76,58.66,107.4,44.39V33.75l-6.2-3.87,8.65-3.83L97.24,10.75l-8,3.18V7.5L76,1.1,62.75,7.5v6.43l-8-3.18L42.17,26.05l8.65,3.83-6.2,3.87Z"/><polyline class="cls-9" points="76.02 0.7 76.02 33.63 107.78 44.6"/><polygon class="cls-8" points="107.65 44.93 75.63 33.87 75.63 0.7 76.41 0.7 76.41 33.39 107.92 44.27 107.65 44.93"/><polygon class="cls-8" points="76.41 59.05 75.64 59.05 75.64 34.14 44.38 44.93 44.1 44.27 76.41 33.12 76.41 59.05"/><path class="cls-9" d="M57.13,56h0"/><path class="cls-9" d="M56.83,56h0"/><path class="cls-9" d="M56.56,56h0"/><polygon class="cls-9" points="55.81 56.42 55.81 56.42 55.81 56.41 55.81 56.42"/><path class="cls-9" d="M55.72,56.54a.76.76,0,0,0-.09.18.76.76,0,0,1,.09-.18"/><path class="cls-9" d="M57.22,56l.27.07.22.11-.22-.11L57.22,56"/><path class="cls-9" d="M57.91,56.3l-.11-.08.11.08"/><path class="cls-9" d="M58.28,57.71h0"/><path class="cls-9" d="M58.15,56.58l0,.05,0-.05"/><path class="cls-9" d="M58.06,56.45,58,56.39l.06.06"/><path class="cls-9" d="M59.92,57.47l0,0,0,0"/><path class="cls-9" d="M62.11,50l.07.06L62.11,50"/><path class="cls-9" d="M61.46,49.36s0,0,.07.08-.06,0-.07-.08"/><path class="cls-9" d="M61.74,54.13a.41.41,0,0,0-.05-.09.41.41,0,0,1,.05.09"/><path class="cls-9" d="M61.57,53.81a.49.49,0,0,1,0-.11.49.49,0,0,0,0,.11"/><path class="cls-9" d="M61.44,53.45a.61.61,0,0,1,0-.11.61.61,0,0,0,0,.11"/><path class="cls-9" d="M60.36,48c-.21-.08-.47-.15-.77-.23.3.08.56.15.77.23h0"/><path class="cls-9" d="M60.86,48.69l.06.07-.06-.07"/><path class="cls-9" d="M58.75,47.6l.17,0-.17,0"/><path class="cls-9" d="M59,47.66l.21.05L59,47.66"/><path class="cls-9" d="M59.32,47.72l.24.06-.24-.06"/><path class="cls-9" d="M34.07,13.67s0,0,0,0l.25.14a1.32,1.32,0,0,1-.2-.12"/><path class="cls-9" d="M33.44,13.25l.44.31-.44-.31"/><path class="cls-9" d="M35.5,16.22s0,0,0,0,0,0,0,0"/><path class="cls-9" d="M35.9,16.55l0,0,0,0"/><path class="cls-9" d="M36.33,16.84l.06,0-.06,0"/><path class="cls-9" d="M36.46,14.54l.26,0-.26,0"/><path class="cls-9" d="M35.14,15.86l0,0,0,0"/><path class="cls-9" d="M34.52,14.93l0,0,0,0"/><path class="cls-9" d="M34.25,14.35v0"/><path class="cls-9" d="M34.75,14l.28.12L34.75,14"/><path class="cls-9" d="M35.33,14.25l.26.08-.26-.08"/><path class="cls-9" d="M35.9,14.41l.25.06-.25-.06"/><path class="cls-9" d="M56.51,16.24l.28.06-.28-.06"/><path class="cls-9" d="M56.47,16.23l-.27-.06h0l.33.07h0"/><path class="cls-9" d="M56.07,16.15l-.19,0,.26.05h-.07"/><path class="cls-9" d="M55.87,16.11h0"/><path class="cls-9" d="M55.39,16l.31,0-.31,0"/><path class="cls-9" d="M56.06,16.42l-.05,0,.05,0"/><path class="cls-9" d="M55.79,16.53l-.14.06.14-.06"/><path class="cls-9" d="M54.32,15.86a.2.2,0,0,0-.11,0,.2.2,0,0,1,.11,0"/><path class="cls-9" d="M53.68,15.69l0,0,0,0"/><path class="cls-9" d="M50.43,13.13l0,0,0,0"/><path class="cls-9" d="M50.19,12.7a.15.15,0,0,0,0-.07.15.15,0,0,1,0,.07"/><path class="cls-9" d="M50,12.24s0-.07,0-.11,0,.07,0,.11"/><path class="cls-9" d="M55.4,16.68A61.91,61.91,0,0,1,48,19.23l-.47.12-.08,0h0l.6-.15a70.44,70.44,0,0,0,7.41-2.55"/><path class="cls-9" d="M99.72,22.62Z"/><path class="cls-9" d="M99.61,22.54l-.2-.12a5.42,5.42,0,0,0,.82,0l-.62.15"/><path class="cls-9" d="M94.37,23.45Z"/><path class="cls-9" d="M93.63,23.19l0,0,0,0"/><polyline class="cls-9" points="93.99 23.34 93.98 23.34 93.99 23.34"/><path class="cls-9" d="M93.31,23,93.22,23l.09.05"/><path class="cls-9" d="M89.62,19l.47-.34-.47.34"/><path class="cls-9" d="M90.24,18.59l.52-.32-.52.32"/><path class="cls-9" d="M86.58,22.25h.17a12.24,12.24,0,0,1,2.52.28h0l.09.1a11.85,11.85,0,0,0-2.76-.36"/><path class="cls-9" d="M86.73,21.8a.21.21,0,0,0,0-.06.21.21,0,0,1,0,.06"/><path class="cls-9" d="M87,21.49a.46.46,0,0,0,.07-.07.46.46,0,0,1-.07.07"/><path class="cls-9" d="M87.25,21.22l.09-.1-.09.1"/><path class="cls-9" d="M87.53,20.91l.11-.1-.11.1"/><path class="cls-9" d="M87.89,20.55l0-.05,0,.05"/><path class="cls-9" d="M88,20.48h0l.06.17L88,20.48"/><path class="cls-9" d="M88.1,20.84s0,0,0,0,0,0,0,0"/><polyline class="cls-9" points="88.97 22.18 88.98 22.19 88.97 22.18"/><path class="cls-9" d="M86.37,22.22l0-.07,0,.07"/><path class="cls-9" d="M86.51,22l.07-.08-.07.08"/><polyline class="cls-9" points="86.35 22.24 86.35 22.24 86.35 22.24 86.35 22.24"/><path class="cls-9" d="M65.5,22.25a0,0,0,0,1,0,0h0Z"/><path class="cls-9" d="M65.27,22s0,.06.07.08,0-.05-.07-.08"/><path class="cls-9" d="M65.43,22.14l.06.08-.06-.08"/><path class="cls-9" d="M65.1,22.24h.1a11.93,11.93,0,0,0-2.64.32l0,0h0a12.22,12.22,0,0,1,2.51-.28"/><path class="cls-9" d="M62.87,22.19h0"/><path class="cls-9" d="M63.75,20.85v0"/><path class="cls-9" d="M63.84,20.65a1.54,1.54,0,0,0,0-.17,1.54,1.54,0,0,1,0,.17"/><path class="cls-9" d="M63.91,20.49l.07.08-.07-.08"/><path class="cls-9" d="M64.22,20.81l.1.11-.1-.11"/><path class="cls-9" d="M64.52,21.12l.09.09-.09-.09"/><path class="cls-9" d="M64.8,21.42l.06.07-.06-.07"/><path class="cls-9" d="M65.08,21.74l0,.06,0-.06"/><polyline class="cls-9" points="57.49 23.45 57.49 23.45 57.49 23.45 57.49 23.45"/><path class="cls-9" d="M57.87,23.34h0"/><path class="cls-9" d="M58.28,23.17l-.05,0,.05,0"/><path class="cls-9" d="M58.64,23l-.09.05.09-.05"/><path class="cls-9" d="M61.08,18.26c.18.1.36.22.54.33-.18-.11-.36-.23-.54-.33"/><path class="cls-9" d="M61.76,18.69l.48.35-.48-.35"/><path class="cls-9" d="M52.14,22.62h0"/><path class="cls-9" d="M52.24,22.54l-.61-.15a5.28,5.28,0,0,0,.81,0Z"/><path class="cls-9" d="M44.87,19.84h-.26a2.43,2.43,0,0,0,.38,0h-.12"/><path class="cls-9" d="M45.2,19.8l.31,0h-.12l-.19,0"/><path class="cls-9" d="M46.32,19.61a3.23,3.23,0,0,0,.33-.06l-.2,0-.07,0h-.06"/><path class="cls-9" d="M46.87,19.5l.47-.11-.36.09h-.11"/><path class="cls-9" d="M48.33,21.63a6.81,6.81,0,0,0,.74-.07,5.87,5.87,0,0,0,1,.47h0c-.54-.12-1-.23-1.42-.3l.24.07Z"/><path class="cls-9" d="M48.88,21.82h0"/><path class="cls-9" d="M48.56,22s0,0,0,0,0,0,0,0"/><path class="cls-9" d="M50.34,21.31h0"/><path class="cls-9" d="M51,21.13l.14-.05-.14.05"/><path class="cls-9" d="M50.12,24.86l-.21.1.21-.1"/><path class="cls-9" d="M49.57,25.12l-.21.1.21-.1"/><path class="cls-9" d="M49,25.39l-.2.08.2-.08"/><path class="cls-9" d="M52.27,23.71l-.2.12.2-.12"/><path class="cls-9" d="M51.86,24l-.22.12.22-.12"/><path class="cls-9" d="M51.41,24.2l-.24.12.24-.12"/><path class="cls-9" d="M50.63,24.6l-.18.1.18-.1"/><path class="cls-9" d="M53.29,23.07l0,0h0"/><path class="cls-9" d="M53.2,23.15l-.12.07.12-.07"/><path class="cls-9" d="M52.94,23.31l-.14.09.14-.09"/><path class="cls-9" d="M52.63,23.5l-.17.11.17-.11"/><path class="cls-9" d="M54.59,23.43h0"/><path class="cls-9" d="M54.15,23.33l0,0,0,0"/><path class="cls-9" d="M53.73,23.21h0"/><path class="cls-9" d="M52.59,22.42l.25,0-.25,0"/><path class="cls-9" d="M53,22.38l.37-.05-.37.05"/><path class="cls-9" d="M53.53,22.3l.34-.08-.34.08"/><path class="cls-9" d="M54,22.19l.44-.14-.44.14"/><path class="cls-9" d="M54.51,22a4.73,4.73,0,0,0,.47-.2,4.73,4.73,0,0,1-.47.2"/><path class="cls-9" d="M56.12,23.6h0"/><path class="cls-9" d="M55.6,23.58h0"/><path class="cls-9" d="M55.09,23.51h0"/><path class="cls-9" d="M56.63,23.58h0"/><path class="cls-9" d="M57.23,24l-.09,0,.09,0"/><path class="cls-9" d="M57.09,24,57,24l.07,0"/><path class="cls-9" d="M57,23.94h0"/><path class="cls-9" d="M57.44,24.05l-.13,0,.13,0"/><path class="cls-9" d="M58.83,24.2c-.17.11-.33.23-.5.36l.08-.38h-.17a5.41,5.41,0,0,0,.59,0"/><path class="cls-9" d="M58.1,24.16l-.29,0,.29,0"/><path class="cls-9" d="M57.7,24.1l-.16,0,.16,0"/><path class="cls-9" d="M96.16,56.42h0s0,0,0,0Z"/><path class="cls-9" d="M95.47,56h0"/><path class="cls-9" d="M95.26,56h0"/><path class="cls-9" d="M95,56h0"/><path class="cls-9" d="M91.91,57.59h0"/><path class="cls-9" d="M92.09,57.44l0,0,0,0"/><path class="cls-9" d="M93.81,56.63s0,0,0-.05,0,0,0,.05"/><path class="cls-9" d="M93.7,57.72h0"/><path class="cls-9" d="M94,56.39l-.07.07.07-.07"/><path class="cls-9" d="M94.18,56.22l-.11.08.11-.08"/><path class="cls-9" d="M94.5,56.06l.26-.07-.26.07-.24.11.24-.11"/><path class="cls-9" d="M96.26,56.54a1.51,1.51,0,0,1,.09.18,1.51,1.51,0,0,0-.09-.18"/><path class="cls-9" d="M91.65,48h0l.46-.15-.46.15"/><path class="cls-9" d="M92.12,47.86l.26-.07-.26.07"/><path class="cls-9" d="M92.43,47.78l.23-.06-.23.06"/><path class="cls-9" d="M92.74,47.7l.21,0-.21,0"/><path class="cls-9" d="M93.06,47.64l.14,0-.14,0"/><path class="cls-9" d="M92.86,24.19a6.26,6.26,0,0,0,.76,0h-.17l.1.52q-.33-.27-.69-.51"/><path class="cls-9" d="M94.32,24.07l-.17,0,.17,0"/><path class="cls-9" d="M94.05,24.12l-.29,0,.29,0"/><path class="cls-9" d="M94.72,24l-.1,0,.1,0"/><path class="cls-9" d="M94.54,24l-.12,0,.12,0"/><path class="cls-9" d="M94.9,23.93h0"/><path class="cls-9" d="M94.84,24l-.07,0,.07,0"/><path class="cls-9" d="M95.23,23.58h0"/><path class="cls-9" d="M95.73,23.6h0"/><path class="cls-9" d="M96.83,23.5h0"/><path class="cls-9" d="M96.33,23.57h0"/><path class="cls-9" d="M98.58,23.07h0l0,0"/><path class="cls-9" d="M98.19,23.2h0"/><path class="cls-9" d="M97.75,23.31l0,0,0,0"/><path class="cls-9" d="M97.29,23.42h0"/><path class="cls-9" d="M96.87,21.8a4.73,4.73,0,0,0,.47.2,4.73,4.73,0,0,1-.47-.2"/><path class="cls-9" d="M97.45,22.05l.44.14-.44-.14"/><path class="cls-9" d="M98,22.22l.34.08L98,22.22"/><path class="cls-9" d="M98.47,22.33l.38.05-.38-.05"/><path class="cls-9" d="M99,22.4l.25,0-.25,0"/><path class="cls-9" d="M99.79,23.83l-.21-.12.21.12"/><path class="cls-9" d="M99.4,23.61l-.18-.11.18.11"/><path class="cls-9" d="M99.06,23.4l-.15-.09.15.09"/><path class="cls-9" d="M98.78,23.22l-.12-.07.12.07"/><path class="cls-9" d="M101.78,22h0a6.07,6.07,0,0,0,1-.47,6.37,6.37,0,0,0,.74.07l-.59.17.25-.07c-.38.07-.88.18-1.41.3"/><path class="cls-9" d="M103.06,25.47l-.2-.08.2.08"/><path class="cls-9" d="M102.5,25.22l-.21-.1.21.1"/><path class="cls-9" d="M102,25l-.21-.1.21.1"/><path class="cls-9" d="M101.41,24.7l-.18-.1.18.1"/><path class="cls-9" d="M100.68,24.32l-.23-.12.23.12"/><path class="cls-9" d="M100.22,24.07,100,24l.23.12"/><path class="cls-9" d="M100.76,21.08l.14.05-.14-.05"/><path class="cls-9" d="M101.48,21.3h0"/><path class="cls-9" d="M103.31,22h0"/><path class="cls-9" d="M103,21.83h0"/><path class="cls-9" d="M106.91,19.83h0l.37,0h-.33"/><path class="cls-9" d="M106.47,19.78h-.12l.3,0-.18,0"/><path class="cls-9" d="M105.48,19.61l-.07,0-.2,0,.31.06h0"/><path class="cls-9" d="M105,19.49h-.08l-.36-.09.46.11h0"/><path class="cls-9" d="M104.42,19.37l-.08,0-.48-.12a64.68,64.68,0,0,1-7.4-2.54,73.48,73.48,0,0,0,7.4,2.54l.61.15h0"/><path class="cls-9" d="M101.43,13.13a0,0,0,0,0,0,0,0,0,0,0,1,0,0"/><path class="cls-9" d="M101.66,12.7l0-.07,0,.07"/><path class="cls-9" d="M101.87,12.23l0-.1,0,.1"/><path class="cls-9" d="M98.22,15.67l0,0,0,0"/><path class="cls-9" d="M97.65,15.83l-.13,0,.13,0"/><path class="cls-9" d="M95.79,16.15h-.07l.26-.05-.19,0"/><path class="cls-9" d="M96,16.1h0Z"/><path class="cls-9" d="M95.66,16.17l-.27.06h0l.33-.07h0"/><path class="cls-9" d="M95.34,16.24l-.27.06.27-.06Z"/><path class="cls-9" d="M96.18,16.58l-.09,0,.09,0"/><path class="cls-9" d="M96.16,16.08l.3,0-.3,0"/><path class="cls-9" d="M95,16.31l-.36.1.36-.1"/><path class="cls-9" d="M93.1,17l-.36.18a42.22,42.22,0,0,0,7.37,3.66,42.22,42.22,0,0,1-7.37-3.66l-.42.22.78-.4"/><path class="cls-9" d="M94.58,16.44l-.29.1.29-.1"/><path class="cls-9" d="M94.19,16.57l-.28.1.28-.1"/><path class="cls-9" d="M93.82,16.71l-.28.11.28-.11"/><path class="cls-9" d="M93.45,16.85l-.3.14.3-.14"/><path class="cls-9" d="M91.28,18l-.47.26.47-.26"/><path class="cls-9" d="M92.25,17.45l-.36.19.36-.19"/><path class="cls-9" d="M91.77,17.71l-.39.21.39-.21"/><path class="cls-9" d="M89.55,19.08l-.32.26.32-.26"/><path class="cls-9" d="M89.13,19.42c-.11.09-.22.18-.31.27.09-.09.2-.18.31-.27"/><path class="cls-9" d="M88.72,19.77l-.29.26.29-.26"/><path class="cls-9" d="M88.09,20.35l.23-.21-.23.21"/><path class="cls-9" d="M86,22.25h0a.41.41,0,0,0,0-.08Z"/><path class="cls-9" d="M63.43,20l-.29-.27.29.27"/><path class="cls-9" d="M63.78,20.37l-.24-.24.24.24"/><path class="cls-9" d="M62.64,19.34l-.34-.26.34.26"/><path class="cls-9" d="M63.05,19.7l-.32-.28.32.28"/><path class="cls-9" d="M59.53,17.41l-.42-.22a41.59,41.59,0,0,1-7.36,3.66,41.59,41.59,0,0,0,7.36-3.66L58.75,17l.78.4"/><path class="cls-9" d="M61,18.24,60.55,18l.49.28"/><path class="cls-9" d="M60.48,17.93l-.4-.22.4.22"/><path class="cls-9" d="M60,17.64l-.37-.2.37.2"/><path class="cls-9" d="M58.7,17l-.3-.14.3.14"/><path class="cls-9" d="M58.31,16.82,58,16.71l.27.11"/><path class="cls-9" d="M57.94,16.67l-.27-.1.27.1"/><path class="cls-9" d="M57.57,16.54l-.3-.1.3.1"/><path class="cls-9" d="M57.19,16.41l-.36-.1.36.1"/><path class="cls-9" d="M42.85,17.63h0"/><path class="cls-9" d="M42.22,17.69h0"/><path class="cls-9" d="M41,17.76h0"/><path class="cls-9" d="M40.4,17.76h0Z"/><path class="cls-9" d="M38.92,14.69h0"/><path class="cls-9" d="M39.39,14.67h0"/><path class="cls-9" d="M39.85,14.64h0"/><path class="cls-9" d="M40.29,14.61l.11,0-.11,0"/><path class="cls-9" d="M40.85,14.55h0"/><path class="cls-9" d="M38.15,14.7h0Z"/><path class="cls-9" d="M37.82,14.69l-.24,0,.24,0"/><path class="cls-9" d="M37.28,14.65l-.26,0,.26,0"/><path class="cls-9" d="M33.36,13.17c-.15-.12-.29-.26-.44-.4.15.14.29.28.44.4"/><path class="cls-9" d="M32.45,12.26l0,0,0,0"/><path class="cls-9" d="M32,11.77s0,0,0,0,0,0,0,0"/><path class="cls-9" d="M31.62,11.3a.08.08,0,0,0,0,0,.08.08,0,0,1,0,0"/><path class="cls-9" d="M31.27,10.85l0,0,0,0"/><path class="cls-9" d="M31,10.43l0,0,0,0"/><path class="cls-9" d="M30.77,10v0"/><path class="cls-9" d="M30.63,9.67h0"/><path class="cls-9" d="M31.72,13.75c-5.41.08-15.82.24-18.63.26,2.81,0,13.22-.18,18.63-.26"/><path class="cls-9" d="M12.14,14h0"/><path class="cls-9" d="M14.54,18.83h0"/><path class="cls-9" d="M16.24,19h0"/><path class="cls-9" d="M18,19.08h0Z"/><path class="cls-9" d="M19.91,19h0"/><path class="cls-9" d="M21.54,23.12h0Z"/><path class="cls-9" d="M22.88,23l.49-.06.4-.07-.4.07-.49.06"/><path class="cls-9" d="M22,23.11h0"/><path class="cls-9" d="M22.41,23.09h0"/><path class="cls-9" d="M24.25,22.84C29,22,40.9,19.35,40.9,19.35L38.5,17.6h0l.15,0a7.84,7.84,0,0,0,5.81,2.25h-.53a5,5,0,0,1-.73.1l0,0-2.39-.63c-1,.23-12,2.69-16.58,3.47"/><path class="cls-9" d="M23.81,22.91l.4-.07-.4.07"/><path class="cls-9" d="M37.19,17.25l.08,0-.08,0"/><path class="cls-9" d="M37.6,17.39h0"/><path class="cls-9" d="M31.34,25.26c2.69-.72,10.51-3.6,13-4.5-2.45.9-10.28,3.78-13,4.5"/><path class="cls-9" d="M42.64,25s0,0-.06,0,0,0,.06,0"/><path class="cls-9" d="M48,22.35h0"/><path class="cls-9" d="M45.42,23.7h0"/><path class="cls-9" d="M44.09,24.35a0,0,0,0,0,0,0,0,0,0,0,1,0,0"/><path class="cls-9" d="M48.23,25.71l.17-.07-.17.07"/><path class="cls-9" d="M47.73,25.91l.07,0-.07,0"/><path class="cls-9" d="M51.37,27l.53-.24-.53.24"/><path class="cls-9" d="M59.24,45.68a.92.92,0,0,1,0-.09.92.92,0,0,0,0,.09"/><path class="cls-9" d="M59.06,45s0,0,0,0,0,0,0,0"/><path class="cls-9" d="M58.93,44.36s0-.08,0-.12,0,.08,0,.12"/><path class="cls-9" d="M58.85,43.75a.91.91,0,0,0,0-.17.91.91,0,0,1,0,.17"/><path class="cls-9" d="M58.36,47.53h0"/><path class="cls-9" d="M58.07,47.48h0"/><path class="cls-9" d="M57.76,47.44h0"/><path class="cls-9" d="M54.32,55.27h0"/><path class="cls-9" d="M60.21,57.76l0,0,0,0"/><path class="cls-9" d="M62.16,54.64l.07.06-.07-.06"/><path class="cls-9" d="M62.69,55l.08,0-.08,0"/><path class="cls-9" d="M62.4,54.83l.1.05-.1-.05"/><path class="cls-9" d="M62.85,50.58l0,0,0,0"/><path class="cls-9" d="M90.57,53.34l0,.11,0-.11"/><path class="cls-9" d="M90.45,53.7l0,.11,0-.11"/><path class="cls-9" d="M90.29,54a.41.41,0,0,0-.05.09.41.41,0,0,1,.05-.09"/><path class="cls-9" d="M89.75,54.7l.07-.06-.07.06"/><path class="cls-9" d="M89.21,55l.08,0-.08,0"/><path class="cls-9" d="M89.48,54.88l.09-.05-.09.05"/><polyline class="cls-9" points="90.04 54.41 90.04 54.41 90.04 54.41"/><path class="cls-9" d="M91.77,57.76l0,0,0,0"/><path class="cls-9" d="M97.68,55.26h0"/><path class="cls-9" d="M93.63,47.53h0"/><path class="cls-9" d="M93.91,47.48h0"/><path class="cls-9" d="M94.22,47.44h0"/><path class="cls-9" d="M100,26.8l.53.24L100,26.8"/><path class="cls-9" d="M103.45,25.64l.17.07-.17-.07"/><path class="cls-9" d="M104.05,25.89l.07,0-.07,0"/><path class="cls-9" d="M107.77,24.35h0"/><path class="cls-9" d="M107.55,20.76h0c2.46.9,10.27,3.78,13,4.5-2.7-.72-10.52-3.6-13-4.5"/><path class="cls-9" d="M111,19.37l-2.39.63,0,0a5,5,0,0,1-.73-.1h-.53a7.87,7.87,0,0,0,5.81-2.25l.14,0h0l-2.42,1.75s11.92,2.67,16.67,3.49C123.08,22.06,112,19.6,111,19.37"/><path class="cls-9" d="M67.88,9.47c.32-1.19,1.62-2.08,3.36-2.35a5.06,5.06,0,0,1,4.44-2.65c3.07.07,5.34,3.38,5.74,8.35a33.37,33.37,0,0,1,1.82,5.89H69.37a13.49,13.49,0,0,1,1.1-4.31l.77-4.77a5.31,5.31,0,0,0-3.36-.16"/><path class="cls-8" d="M83.6,19H69.05l0-.29a13.65,13.65,0,0,1,1.11-4.37L70.9,9.8a4.57,4.57,0,0,0-1.53-.24,5.54,5.54,0,0,0-1.4.18l-.5.12.12-.46c.33-1.25,1.65-2.21,3.44-2.53a5.31,5.31,0,0,1,4.52-2.68h.13c3.25.08,5.61,3.44,6,8.57a32.92,32.92,0,0,1,1.82,5.91Zm-13.89-.55H82.88a34.35,34.35,0,0,0-1.74-5.51l0-.08c-.38-4.85-2.52-8-5.44-8.1h-.12a4.84,4.84,0,0,0-4,2.49l-.06.14-.17,0a3.91,3.91,0,0,0-2.92,1.7,5.66,5.66,0,0,1,1-.09,5.11,5.11,0,0,1,2,.38l.19.09-.82,5A12.26,12.26,0,0,0,69.71,18.43Z"/><polyline class="cls-9" points="70.47 14.4 71.28 15.2 72.23 14.24 73.2 14.98 74.07 14.05 75.1 14.91 76 13.78 77.14 14.65 77.91 13.54 79.04 14.34 79.79 13.25 80.89 14.09 81.42 12.82"/><polygon class="cls-8" points="71.29 15.6 70.25 14.58 70.69 14.21 71.28 14.79 72.2 13.86 73.16 14.59 74.04 13.65 75.05 14.5 75.94 13.38 77.07 14.23 77.83 13.13 78.96 13.93 79.71 12.83 80.76 13.63 81.14 12.72 81.7 12.91 81.03 14.55 79.86 13.66 79.11 14.74 77.99 13.94 77.21 15.06 76.05 14.18 75.14 15.33 74.1 14.44 73.23 15.36 72.26 14.62 71.29 15.6"/><path class="cls-10" d="M72.62,7.2a4.67,4.67,0,0,1,2.62-1,9.1,9.1,0,0,0-.62,1.08,6.39,6.39,0,0,0-2-.08"/><path class="cls-8" d="M71,7.79l1.35-.93a5.32,5.32,0,0,1,2.88-1.09h.86l-.42.66a9.12,9.12,0,0,0-.6,1l-.15.31-.55-.09a5.45,5.45,0,0,0-1.68,0Z"/><path class="cls-9" d="M77.08,36.2l0,13.3a9.92,9.92,0,0,0,10.45-.2,7.9,7.9,0,0,0,3.41-9Z"/><path class="cls-9" d="M94.9,23.93l-.53-.48h0l.39.08A56.58,56.58,0,0,0,100,26.8c.24.12.47.21.7.31a2.91,2.91,0,0,0,.37.22c.49.25,1.14,1.75-1.29,1.4s-5.44-1.08-6.11-3.55l-.18-1a6.2,6.2,0,0,0,1.45-.25"/><path class="cls-9" d="M118.93,12.77c1.33-1.4,2.34-2.64,2.35-3.42l28-3c2.27-.24,2.06,1.32,1.18,2.11a49.45,49.45,0,0,1-6.1,4.67,9.32,9.32,0,0,1-5,.94c-1.69,0-17.59-.25-21.6-.31a5.53,5.53,0,0,0,1.19-.94"/><path class="cls-8" d="M140.16,14.3h-.82c-1.59,0-15.51-.21-20.74-.29l-1.86,0,.83-.49a5.42,5.42,0,0,0,1.14-.89c1-1.11,2.25-2.49,2.26-3.24V9.1L130.91,8l18.33-2c1.43-.15,1.91.4,2,.72a1.71,1.71,0,0,1-.62,1.85,49.47,49.47,0,0,1-6.13,4.71A8.33,8.33,0,0,1,140.16,14.3Zm-21.54-.85c5.25.08,19.13.29,20.72.29h.82a7.71,7.71,0,0,0,4-.9,50,50,0,0,0,6.05-4.64A1.25,1.25,0,0,0,150.73,7c-.15-.33-.63-.4-1-.4l-.41,0L131,8.57l-9.43,1c-.14.74-.86,1.74-2.38,3.35A6.64,6.64,0,0,1,118.62,13.45Z"/><path class="cls-9" d="M117.81,13.71c4.12.07,19.84.31,21.53.31a10.38,10.38,0,0,0,4.51-.66c1.54,0,1.21,1.12.9,1.63a9.63,9.63,0,0,1-4.93,3.29,23.5,23.5,0,0,1-8.64.68c-2.63-.26-14-1.6-16.14-1.86a4.93,4.93,0,0,0,2.77-3.39"/><path class="cls-8" d="M133.64,19.35c-.88,0-1.71,0-2.5-.11C128.5,19,117.23,17.63,115,17.37l-1-.12.88-.4a4.62,4.62,0,0,0,2.62-3.2l0-.22h.25c3.76.06,19.81.3,21.52.3h.81a8.49,8.49,0,0,0,3.56-.64l.12,0h.1a1.37,1.37,0,0,1,1.23.5c.39.59,0,1.39-.14,1.55-.76,1.26-2.8,2.63-5.09,3.4A21.19,21.19,0,0,1,133.64,19.35Zm-17.71-2.43c3.42.41,12.89,1.52,15.28,1.77.76.07,1.58.11,2.43.11a20.8,20.8,0,0,0,6.08-.78,9.32,9.32,0,0,0,4.77-3.16,1.1,1.1,0,0,0,.15-1c-.1-.15-.34-.23-.71-.23h0a9.13,9.13,0,0,1-3.77.67h-.81c-1.68,0-17.14-.23-21.3-.3A5.21,5.21,0,0,1,115.93,16.92Z"/><path class="cls-9" d="M115,17.1c2.19.26,13.51,1.6,16.14,1.86a26.15,26.15,0,0,0,6.93-.26c1.3.11,1.31.88.77,1.34a22.94,22.94,0,0,1-4.74,2.32,10,10,0,0,1-5.66.62c-3.91-.57-17.54-3.63-17.54-3.63l2.42-1.75a7.61,7.61,0,0,0,1.68-.5"/><path class="cls-8" d="M130.37,23.4a13.39,13.39,0,0,1-1.94-.15c-3.88-.57-17.42-3.6-17.56-3.63l-.59-.13,3-2.16a6.57,6.57,0,0,0,1.6-.48l.08,0h.1c.13,0,13.24,1.57,16.13,1.87a26.79,26.79,0,0,0,6.84-.26h.09c1,.07,1.25.48,1.33.72a1,1,0,0,1-.39,1.09,23.35,23.35,0,0,1-4.82,2.38A10.2,10.2,0,0,1,130.37,23.4Zm-18.75-4.18c2.67.59,13.52,3,16.91,3.48a12,12,0,0,0,1.84.15,9.49,9.49,0,0,0,3.66-.74,22.73,22.73,0,0,0,4.64-2.27.52.52,0,0,0,.23-.52c-.06-.17-.34-.3-.77-.34a27.53,27.53,0,0,1-7,.26c-2.77-.29-14.88-1.72-16-1.86a8.06,8.06,0,0,1-1.59.48Z"/><path class="cls-9" d="M108.64,20l2.39-.63c1.09.24,13.71,3.06,17.45,3.61a11.55,11.55,0,0,0,3.31,0c1.26.53-.44,2.14-4.52,3-1.9.42-3.55.05-6.75-.8-2.7-.72-10.52-3.6-13-4.5a6,6,0,0,0,1.09-.76"/><path class="cls-8" d="M125.69,26.51a21.51,21.51,0,0,1-5.27-1c-2.81-.75-11.31-3.89-13-4.51l-.57-.21.52-.28a5.17,5.17,0,0,0,1-.71l.06-.06,2.53-.67.18,0c3.21.72,14,3.09,17.34,3.58a10.88,10.88,0,0,0,3.21.05l.09,0,.09,0a.79.79,0,0,1,.58.81c-.11,1-2.18,2.09-5.16,2.75A7.65,7.65,0,0,1,125.69,26.51ZM108.2,20.7c2.46.91,9.83,3.6,12.4,4.29,3,.81,4.75,1.21,6.6.81,3.11-.69,4.64-1.77,4.69-2.27,0,0,0-.13-.15-.23a11.94,11.94,0,0,1-3.31-.05c-3.4-.5-14.17-2.88-17.39-3.59h0l-2.23.59A6.42,6.42,0,0,1,108.2,20.7Z"/><path class="cls-9" d="M107.55,20.76c2.45.9,10.27,3.78,13,4.5a35.49,35.49,0,0,0,3.7.85c.55.51,0,1.11-1.17,1.54-2.36.88-5.18.42-8.22-.49a61.79,61.79,0,0,1-11.89-5.36l.59-.17a7.64,7.64,0,0,0,4-.87"/><path class="cls-8" d="M120.22,28.4a19.6,19.6,0,0,1-5.49-1,62.46,62.46,0,0,1-12-5.4l-.53-.31,1.24-.37H104a7.22,7.22,0,0,0,3.44-.84l.13-.07.14.05c3,1.12,10.38,3.81,12.94,4.49a33.63,33.63,0,0,0,3.67.85h.1l.07.07a.77.77,0,0,1,.28.76c-.13.58-.92,1-1.56,1.23A8.32,8.32,0,0,1,120.22,28.4ZM103.7,21.91a60.08,60.08,0,0,0,11.22,5c3.7,1.1,6,1.23,8,.5.81-.31,1.15-.63,1.2-.83a.25.25,0,0,0-.06-.21,33,33,0,0,1-3.65-.84c-2.45-.66-9-3.05-12.85-4.46a7.77,7.77,0,0,1-3.62.86h-.25Z"/><path class="cls-9" d="M98.56,23.08a32,32,0,0,0,7.18,3.4c.61.38.38.84-1.07,1.08A7.15,7.15,0,0,1,100,26.8a56.58,56.58,0,0,1-5.22-3.27,8.31,8.31,0,0,0,3.82-.45"/><path class="cls-8" d="M103.32,28A7.73,7.73,0,0,1,99.81,27a56,56,0,0,1-5.25-3.29l-1-.7,1.25.21a5.87,5.87,0,0,0,.86.07,9.16,9.16,0,0,0,2.8-.51l.15-.05.14.09a31.67,31.67,0,0,0,7.1,3.36l.07,0c.47.28.47.58.44.74-.1.4-.63.67-1.62.83A9.25,9.25,0,0,1,103.32,28Zm-7.57-4.07a46.26,46.26,0,0,0,4.35,2.67,7,7,0,0,0,3.22.85,8,8,0,0,0,1.3-.12c.9-.14,1.13-.35,1.13-.4s0-.06-.14-.15a32.31,32.31,0,0,1-7.1-3.34A10.35,10.35,0,0,1,95.75,23.88Z"/><path class="cls-9" d="M99.74,22.61l-.13-.07.62-.15a6.68,6.68,0,0,0,1.55-.36c.53-.12,1-.23,1.41-.3l-.25.07a68.15,68.15,0,0,0,7.87,3.92c.67.82-.51,1.74-3.67,1.12a29.51,29.51,0,0,1-8.58-3.76,10.9,10.9,0,0,0,1.18-.47"/><path class="cls-8" d="M109,27.32a10.8,10.8,0,0,1-1.92-.2,29.85,29.85,0,0,1-8.71-3.82l-.43-.3.51-.18c.25-.08.47-.17.65-.24l-.27-.15,1.33-.3a6.93,6.93,0,0,0,1.51-.36c.58-.13,1.07-.24,1.46-.31l.05.15a68.21,68.21,0,0,0,7.75,3.86l.08,0,0,.05a.88.88,0,0,1,.13,1C110.91,27.05,110.13,27.32,109,27.32Zm-9.81-4.17a29.15,29.15,0,0,0,8,3.43,9.34,9.34,0,0,0,1.79.19c1,0,1.52-.25,1.65-.47a.31.31,0,0,0-.05-.36,70.89,70.89,0,0,1-7.74-3.86l-1,.22a6.63,6.63,0,0,1-1.58.36l-.38.19S99.61,23,99.19,23.15Z"/><path class="cls-9" d="M94.9,23.93l-.53-.48h0l.39.08A56.58,56.58,0,0,0,100,26.8c.24.12.47.21.7.31a2.91,2.91,0,0,0,.37.22c.49.25,1.14,1.75-1.29,1.4s-5.44-1.08-6.11-3.55l-.18-1a6.2,6.2,0,0,0,1.45-.25"/><path class="cls-8" d="M100.39,29.06a4.72,4.72,0,0,1-.7-.06c-2.38-.33-5.64-1.09-6.35-3.75l-.24-1.32.33,0a7.48,7.48,0,0,0,.88-.11l-.16-.15.17-.15.08-.33-.07.32,0,0,.08-.27-.07.27.09-.27.34.08.13,0a54.1,54.1,0,0,0,5.18,3.24c.24.12.46.22.69.31l.39.23a1.2,1.2,0,0,1,.58,1.27C101.69,28.62,101.41,29.06,100.39,29.06Zm-6.58-4.63.12.71c.62,2.29,3.46,3,5.86,3.32a4.83,4.83,0,0,0,.6.05c.27,0,.71,0,.79-.29a.7.7,0,0,0-.29-.64l-.4-.25a6.52,6.52,0,0,1-.68-.29,48.53,48.53,0,0,1-4.68-2.9l-.13.05A6.39,6.39,0,0,1,93.81,24.43Z"/><path class="cls-9" d="M93.72,23.23l-.15-.07.15.07"/><path class="cls-9" d="M94.05,23.36l-.13-.05.13.05"/><path class="cls-9" d="M102.09,11.63s2.71,0,4.08-.11c1.65-.19,2.83-1.14,3-1.87a.36.36,0,0,0-.08-.34c4.14-.34,8.51-.72,9.38-.8,4.36-.45,3,1.61.48,4.26s-6.91,1.83-8.28,1.76c-1.08-.06-7-.71-9.48-1a7.21,7.21,0,0,0,.92-1.91"/><path class="cls-8" d="M113.4,15c-.84,0-1.6-.07-2.15-.12a5.47,5.47,0,0,0-.61,0c-1.29-.08-9.17-1-9.51-1l-.47-.05.25-.37a6.89,6.89,0,0,0,.88-1.85l.07-.2H103c.8,0,2.28,0,3.16-.12a3.13,3.13,0,0,0,2.73-1.65c0-.06,0-.08,0-.1l-.39-.4L109,9c4.23-.35,8.52-.72,9.38-.81,1.77-.18,2.74,0,3.06.66.44.87-.61,2.25-2.31,4A7.62,7.62,0,0,1,113.4,15Zm-11.73-1.66c3.09.34,8,.88,9,.93l.64.06c.54,0,1.28.12,2.09.12,2.4,0,4.14-.61,5.31-1.85.7-.74,2.59-2.73,2.22-3.46-.17-.33-.87-.4-1.42-.4a9.69,9.69,0,0,0-1,.06c-.84.08-4.92.44-9,.78a.36.36,0,0,1,0,.14c-.18.85-1.48,1.9-3.25,2.09-.86.1-2.24.12-3.23.12h-.66A8.83,8.83,0,0,1,101.67,13.32Z"/><path class="cls-9" d="M101.17,13.54c2.45.28,8.4.93,9.48,1s4.64.67,7.17-.87c-1.15,4.39-5.62,4.35-9.31,3.92a54.53,54.53,0,0,1-9.19-2.37,5.28,5.28,0,0,0,1.85-1.67"/><path class="cls-8" d="M111.3,18a24.05,24.05,0,0,1-2.83-.19,53.06,53.06,0,0,1-9.26-2.38l-.58-.21.53-.29a5.07,5.07,0,0,0,1.75-1.57l.1-.15.2,0c3,.34,8.46.93,9.46,1l.64.06c.54,0,1.28.12,2.09.12a8,8,0,0,0,4.25-1l.65-.39-.18.69C117.36,16.63,115.13,18,111.3,18ZM100,15.14a49.28,49.28,0,0,0,8.57,2.16,22.82,22.82,0,0,0,2.75.19c3.24,0,5.19-1,6-3.25a9.2,9.2,0,0,1-3.92.74c-.84,0-1.6-.07-2.15-.12a5.29,5.29,0,0,0-.61,0c-1.19-.07-7.9-.81-9.32-1A5.7,5.7,0,0,1,100,15.14Z"/><path class="cls-9" d="M96.91,16a6.69,6.69,0,0,0,2.41-.75,54.53,54.53,0,0,0,9.19,2.37,17.29,17.29,0,0,0,4.71,0c-3.39,2.95-6.06,2.44-9.36,1.61a81.47,81.47,0,0,1-8.52-3c.46-.1,1-.2,1.57-.28"/><path class="cls-8" d="M107.8,20.15a16.85,16.85,0,0,1-4-.65,80.2,80.2,0,0,1-8.57-3l-.8-.33.85-.19c.49-.11,1-.2,1.6-.28A6.55,6.55,0,0,0,99.16,15l.12-.07.15,0a53.5,53.5,0,0,0,9.12,2.35,16.3,16.3,0,0,0,4.62.05l1-.16-.73.63A8.29,8.29,0,0,1,107.8,20.15ZM96.32,16.33A76.58,76.58,0,0,0,104,19a16.27,16.27,0,0,0,3.85.63A7.21,7.21,0,0,0,112.29,18a20.32,20.32,0,0,1-3.82-.16,52.33,52.33,0,0,1-9.13-2.34,7.21,7.21,0,0,1-2.38.72Z"/><path class="cls-9" d="M96,16.1h0l-.67.13,1.11.44a63.11,63.11,0,0,0,7.41,2.55l.48.12.08,0,.46.11H105l.45.1.07,0,.93.16h.06l.44,0H107l.44,0h.52a5,5,0,0,0,.73.1s-3,3.08-8.56.88a42.22,42.22,0,0,1-7.37-3.66A11.22,11.22,0,0,1,96,16.1"/><path class="cls-8" d="M103.94,21.92a10.8,10.8,0,0,1-4-.82,42.39,42.39,0,0,1-7.42-3.68l-.38-.26L92.6,17a10.79,10.79,0,0,1,2.67-1l.1,0h0l.58-.12.37-.06v.56l.25.1A63.84,63.84,0,0,0,103.94,19l.48.11v.29l.08-.27.45.11.08,0,.45.09.07,0,.91.16.45.05.22,0,.31,0h.49l.75.09.64,0-.42.44A7.16,7.16,0,0,1,103.94,21.92Zm-10.62-4.7a43.61,43.61,0,0,0,6.9,3.38,10.13,10.13,0,0,0,3.72.76,7,7,0,0,0,4-1.2l-.1,0h-.49l-.31,0-.21,0-.44-.05c-.38-.05-.69-.11-1-.17l-.11,0c-.1,0-.24-.05-.38-.08l-.14,0-.43-.1-.11,0-.46-.11a62.06,62.06,0,0,1-7.46-2.57c-.41-.15-.75-.3-1-.4A10.06,10.06,0,0,0,93.32,17.22Z"/><path class="cls-9" d="M90.81,18.24c.76-.42,1.37-.76,1.93-1a42.22,42.22,0,0,0,7.37,3.66,11.16,11.16,0,0,0,2.68.71,6.35,6.35,0,0,1-5.92.24,54.43,54.43,0,0,1-6.07-3.55h0"/><path class="cls-8" d="M99.57,22.71a6.46,6.46,0,0,1-2.84-.66,53.56,53.56,0,0,1-6.11-3.57l-.4-.27.89-.47c.56-.31,1-.57,1.48-.8l.17-.08.17.1a41,41,0,0,0,7.3,3.62,10.5,10.5,0,0,0,2.6.7l.83.11-.7.41A6.91,6.91,0,0,1,99.57,22.71Zm-8.21-4.44A52.91,52.91,0,0,0,97,21.55a5.91,5.91,0,0,0,2.55.59,6.41,6.41,0,0,0,2.3-.45,12.41,12.41,0,0,1-1.89-.58,42.9,42.9,0,0,1-7.26-3.58c-.39.2-.81.43-1.28.7Z"/><path class="cls-9" d="M90.8,18.25a55.07,55.07,0,0,0,6.07,3.55,5.9,5.9,0,0,0,2.54.62l.33.19s-4.32,2.13-6.83.15a13.57,13.57,0,0,1-3.34-3.69,9.39,9.39,0,0,1,1.23-.82"/><path class="cls-8" d="M95.65,23.88A4.62,4.62,0,0,1,92.72,23a13.77,13.77,0,0,1-3.42-3.78L89.19,19l.18-.15A11.4,11.4,0,0,1,90.64,18l.17-.1L91,18a53.51,53.51,0,0,0,6,3.53,5.78,5.78,0,0,0,2.4.59h.08l.85.47-.46.23A10.91,10.91,0,0,1,95.65,23.88ZM90,19.13a13.53,13.53,0,0,0,3.15,3.42,4,4,0,0,0,2.54.78,9.51,9.51,0,0,0,3.24-.67A6.27,6.27,0,0,1,96.73,22a52.39,52.39,0,0,1-5.94-3.46C90.52,18.74,90.24,18.93,90,19.13Z"/><path class="cls-9" d="M106.61,9c-.6,0-2.72.09-3.71,0s-3.05-1.09-4.34-1.27-3,0-3.94,1.27A15.09,15.09,0,0,0,93,12.8a16.72,16.72,0,0,1-8.24,7.42l1.38,2.24a19,19,0,0,1,4.64-4.22c2.39-1.32,3.3-1.9,6.1-2.28a5.82,5.82,0,0,0,5.18-4.33s2.71,0,4.08-.11c1.65-.19,2.83-1.14,3-1.87S107.62,9,106.61,9"/><path class="cls-8" d="M86.13,23l-1.77-2.89.32-.12a16.7,16.7,0,0,0,8.07-7.26c.15-.38.27-.75.39-1.13a8.9,8.9,0,0,1,1.22-2.71,3.87,3.87,0,0,1,3.29-1.46,7.69,7.69,0,0,1,.95.06,13.27,13.27,0,0,1,2.3.69,9.32,9.32,0,0,0,2,.58c.57,0,1.52,0,2.32,0,.61,0,1.14,0,1.4,0h.48c.9,0,1.84,0,2.2.44a.56.56,0,0,1,.14.54c-.18.85-1.49,1.9-3.25,2.09-.86.1-2.24.12-3.23.12h-.66A6.06,6.06,0,0,1,97,16.23a12.81,12.81,0,0,0-5.63,2.05l-.36.19a19,19,0,0,0-4.55,4.15Zm-.91-2.62,1,1.6a18,18,0,0,1,4.45-4l.34-.19a13.59,13.59,0,0,1,5.87-2.12,5.48,5.48,0,0,0,4.92-4.14l.08-.2H103c.8,0,2.28,0,3.16-.12a3.13,3.13,0,0,0,2.73-1.65c0-.06,0-.08,0-.09-.18-.21-1.16-.22-1.74-.23h-.5c-.25,0-.77,0-1.35,0-.83,0-1.79,0-2.38,0a9.26,9.26,0,0,1-2.2-.63A11.63,11.63,0,0,0,98.51,8,6.33,6.33,0,0,0,97.65,8a3.28,3.28,0,0,0-2.78,1.21,8.45,8.45,0,0,0-1.15,2.56c-.12.39-.24.78-.4,1.17A17.14,17.14,0,0,1,85.22,20.36Z"/><path class="cls-9" d="M102.3,11.67c-.54,0-2.56-.37-3.8.58-1.46,1.13-2.31,1.84-2.31,1.84"/><path class="cls-8" d="M96.39,14.29l-.4-.4s.87-.73,2.32-1.85a5.38,5.38,0,0,1,3.64-.67l.35,0v.55l-.41,0a4.75,4.75,0,0,0-3.19.54C97.26,13.57,96.4,14.28,96.39,14.29Z"/><path class="cls-9" d="M93.72,23.23l-.15-.07.15.07"/><path class="cls-9" d="M94.05,23.36l-.13-.05.13.05"/><path class="cls-9" d="M89.57,19.07a13.57,13.57,0,0,0,3.34,3.69,3.92,3.92,0,0,0,1.46.69c.22.21.41.38.53.48S91.6,25,89.44,22.72A6.6,6.6,0,0,1,88,20.48a18.83,18.83,0,0,1,1.62-1.41"/><path class="cls-8" d="M93.05,24.47a5.12,5.12,0,0,1-3.84-1.57,7,7,0,0,1-1.54-2.34l-.06-.15.13-.12a19,19,0,0,1,1.63-1.44l.3-.21.17.3a13.26,13.26,0,0,0,3.27,3.61,3.55,3.55,0,0,0,1.34.64l.08,0,.06.05c.22.21.4.37.52.47l.34.31-.45.15A6.73,6.73,0,0,1,93.05,24.47ZM88.3,20.55a6.73,6.73,0,0,0,1.37,2,4.4,4.4,0,0,0,3.38,1.38,5.87,5.87,0,0,0,1.26-.13l-.1-.09A4.23,4.23,0,0,1,92.72,23a14.79,14.79,0,0,1-3.24-3.47C89.11,19.8,88.73,20.14,88.3,20.55Z"/><path class="cls-9" d="M86.75,22.24h-.4A21.69,21.69,0,0,1,88,20.48a5.93,5.93,0,0,0,1.31,2,12.24,12.24,0,0,0-2.52-.28"/><path class="cls-8" d="M90.06,23l-.86-.19a10.59,10.59,0,0,0-2.83-.26h-.32v-.2L86,22.25l.15-.18c.53-.63,1.07-1.23,1.63-1.78l.35-.35.16.46a5.66,5.66,0,0,0,1.25,2ZM87,22a10.66,10.66,0,0,1,1.58.14A6.68,6.68,0,0,1,87.85,21C87.55,21.31,87.26,21.63,87,22Z"/><path class="cls-9" d="M32.92,12.77c-1.32-1.4-2.33-2.64-2.34-3.42l-28-3C.31,6.06.52,7.62,1.39,8.41a50.22,50.22,0,0,0,6.1,4.67,9.35,9.35,0,0,0,5,.94c1.69,0,17.59-.25,21.6-.31a5.58,5.58,0,0,1-1.2-.94"/><path class="cls-8" d="M11.7,14.3a8.31,8.31,0,0,1-4.38-1A49.26,49.26,0,0,1,1.18,8.6,1.73,1.73,0,0,1,.56,6.75c.15-.32.62-.87,2.06-.72L21.85,8.12l9,1v.24c0,.77,1.22,2.14,2.27,3.24a4.77,4.77,0,0,0,1.13.9l.84.49-1.84,0c-5.24.08-19.17.29-20.76.29ZM2.14,6.55c-.38,0-.86.07-1,.4a1.23,1.23,0,0,0,.48,1.26,49,49,0,0,0,6.05,4.64,7.71,7.71,0,0,0,4,.9h.82c1.58,0,15.45-.21,20.72-.29a6.64,6.64,0,0,1-.55-.51c-1.53-1.61-2.25-2.61-2.39-3.35l-8.52-.92L2.55,6.58Z"/><path class="cls-9" d="M34.05,13.71c-4.13.07-19.85.31-21.53.31A10.38,10.38,0,0,1,8,13.36c-1.55,0-1.22,1.12-.91,1.63A9.72,9.72,0,0,0,12,18.28a23.5,23.5,0,0,0,8.64.68c2.62-.26,14-1.6,16.14-1.86a4.91,4.91,0,0,1-2.77-3.39"/><path class="cls-8" d="M18.22,19.35h0a21.09,21.09,0,0,1-6.29-.82c-2.29-.77-4.33-2.14-5.09-3.4a1.63,1.63,0,0,1-.15-1.55,1.39,1.39,0,0,1,1.24-.5l.22,0a8.49,8.49,0,0,0,3.56.64h.81c1.72,0,17.62-.24,21.52-.3h.25l.06.22A4.56,4.56,0,0,0,37,16.85l.88.4-1,.12C31.81,18,23,19,20.72,19.24,19.93,19.31,19.09,19.35,18.22,19.35ZM7.93,13.63c-.37,0-.61.08-.71.24s0,.67.15,1A9.31,9.31,0,0,0,12.14,18a20.8,20.8,0,0,0,6.08.78h0c.85,0,1.66,0,2.43-.11,2.15-.22,10.15-1.16,15.28-1.77A5.17,5.17,0,0,1,33.82,14c-4.28.07-19.61.3-21.3.3h-.81a9.13,9.13,0,0,1-3.77-.67Z"/><path class="cls-9" d="M36.82,17.1c-2.19.26-13.52,1.6-16.14,1.86a26.21,26.21,0,0,1-6.94-.26c-1.3.11-1.32.88-.76,1.34a22.68,22.68,0,0,0,4.74,2.32,10,10,0,0,0,5.65.62c3.92-.57,17.53-3.63,17.53-3.63L38.5,17.6a7.61,7.61,0,0,1-1.68-.5"/><path class="cls-8" d="M21.49,23.4h0a10.2,10.2,0,0,1-3.89-.78,23.23,23.23,0,0,1-4.83-2.38,1,1,0,0,1-.39-1.09c.09-.24.38-.65,1.33-.72h.09a26.89,26.89,0,0,0,6.85.26c2.85-.29,16-1.85,16.13-1.87h.1l.08,0a6.57,6.57,0,0,0,1.6.48l.13.06,2.88,2.1-.59.13c-.13,0-13.68,3.06-17.56,3.63A13.26,13.26,0,0,1,21.49,23.4ZM13.73,19c-.43,0-.71.17-.78.34a.54.54,0,0,0,.23.52,23.4,23.4,0,0,0,4.65,2.27,9.49,9.49,0,0,0,3.66.74h0a12.2,12.2,0,0,0,1.84-.15c3.38-.49,14.23-2.89,16.91-3.48l-1.88-1.36a7.44,7.44,0,0,1-1.59-.48c-1.18.14-13.33,1.58-16.05,1.86A27.08,27.08,0,0,1,13.73,19Z"/><path class="cls-9" d="M43.22,20l-2.39-.63c-1.09.24-13.71,3.06-17.46,3.61a11.48,11.48,0,0,1-3.3,0c-1.26.53.43,2.14,4.52,3,1.9.42,3.55.05,6.75-.8,2.69-.72,10.51-3.6,13-4.5A5.62,5.62,0,0,1,43.22,20"/><path class="cls-8" d="M26.17,26.51h0a7.65,7.65,0,0,1-1.65-.18c-3-.66-5.06-1.76-5.16-2.75a.79.79,0,0,1,.58-.81l.08,0,.1,0a10.88,10.88,0,0,0,3.21-.05c3.57-.52,15.15-3.09,17.43-3.6l.07,0,2.55.67.06.05a5,5,0,0,0,1,.72l.53.29-.57.2c-3,1.12-10.38,3.81-13,4.51A21.36,21.36,0,0,1,26.17,26.51ZM20.12,23.3c-.18.1-.16.19-.16.23.05.5,1.59,1.58,4.7,2.27,1.85.4,3.59,0,6.6-.81,2.44-.65,9.12-3.08,12.4-4.29a4.82,4.82,0,0,1-.6-.46l-2.24-.59c-2.46.56-13.84,3.08-17.4,3.6A11.49,11.49,0,0,1,20.12,23.3Z"/><path class="cls-9" d="M44.31,20.76c-2.45.9-10.27,3.78-13,4.5a36.18,36.18,0,0,1-3.71.85c-.54.51,0,1.11,1.18,1.54,2.36.88,5.17.42,8.22-.49A61.32,61.32,0,0,0,48.9,21.8l-.57-.17a7.61,7.61,0,0,1-4-.87"/><path class="cls-8" d="M31.64,28.4a8.38,8.38,0,0,1-2.95-.49c-.63-.24-1.42-.65-1.55-1.23a.78.78,0,0,1,.27-.76l.07-.07h.1A33.19,33.19,0,0,0,31.26,25c2.56-.68,9.9-3.37,12.93-4.49l.14-.05.13.07a7.14,7.14,0,0,0,3.85.83h0l1.24.37-.53.31a62.46,62.46,0,0,1-12,5.4A19.54,19.54,0,0,1,31.64,28.4Zm-3.85-2a.25.25,0,0,0-.06.21c.05.2.39.52,1.2.83,2,.73,4.31.6,8-.5a59.77,59.77,0,0,0,11.22-5,7.83,7.83,0,0,1-3.87-.85c-3.12,1.16-10.3,3.78-12.85,4.46A35.11,35.11,0,0,1,27.79,26.36Z"/><path class="cls-9" d="M53.3,23.08a32.1,32.1,0,0,1-7.19,3.4c-.6.38-.38.84,1.08,1.08a7.15,7.15,0,0,0,4.71-.76,59.39,59.39,0,0,0,5.22-3.27,8.29,8.29,0,0,1-3.82-.45"/><path class="cls-8" d="M48.54,28a9.25,9.25,0,0,1-1.41-.12c-1-.16-1.53-.43-1.62-.83,0-.16,0-.45.43-.74l.08,0a32.14,32.14,0,0,0,7.1-3.36l.13-.09.16.05a9.15,9.15,0,0,0,2.79.51,6,6,0,0,0,.87-.07l1.25-.21-1,.7A55.73,55.73,0,0,1,52,27,7.7,7.7,0,0,1,48.54,28Zm-2.29-1.22c-.12.09-.15.14-.15.15s.23.26,1.14.4a7.85,7.85,0,0,0,1.3.12,7,7,0,0,0,3.21-.85,42.93,42.93,0,0,0,4.35-2.67,10.27,10.27,0,0,1-2.75-.49A32.78,32.78,0,0,1,46.25,26.73Z"/><path class="cls-9" d="M52.12,22.61l.12-.07-.61-.15A6.56,6.56,0,0,1,50.08,22c-.54-.12-1-.23-1.42-.3l.25.07A68.15,68.15,0,0,1,41,25.72c-.66.82.52,1.74,3.66,1.12a29.42,29.42,0,0,0,8.6-3.76,9.91,9.91,0,0,1-1.18-.47"/><path class="cls-8" d="M42.86,27.32h0c-1.13,0-1.92-.27-2.2-.77a.88.88,0,0,1,.14-1l.05-.05.07,0a67.88,67.88,0,0,0,7.76-3.86l0-.15c.38.07.88.18,1.42.3a6.74,6.74,0,0,0,1.51.36l1.33.31-.25.15.67.24.51.18-.44.3a29.91,29.91,0,0,1-8.7,3.82A10.8,10.8,0,0,1,42.86,27.32Zm-1.62-1.38a.34.34,0,0,0,0,.36c.13.22.63.47,1.66.47h0a9.5,9.5,0,0,0,1.79-.19,29.15,29.15,0,0,0,8-3.43c-.42-.16-.68-.29-.7-.3l-.42-.19A6.76,6.76,0,0,1,50,22.29l-1-.21A71,71,0,0,1,41.24,25.94Z"/><path class="cls-9" d="M57,23.93c.12-.1.3-.27.52-.48h0l-.39.08A59.39,59.39,0,0,1,51.9,26.8c-.25.12-.48.21-.71.31a2.91,2.91,0,0,1-.37.22c-.48.25-1.13,1.75,1.3,1.4s5.44-1.08,6.11-3.55l.18-1A6.2,6.2,0,0,1,57,23.93"/><path class="cls-8" d="M51.46,29.06h0c-1,0-1.3-.44-1.37-.71a1.21,1.21,0,0,1,.59-1.26l.35-.21c.26-.11.49-.21.72-.33a51.41,51.41,0,0,0,5.19-3.24l.13,0,.33-.07h.05l.09.32.16.15-.15.15a7.28,7.28,0,0,0,.87.11l.34,0-.24,1.29c-.72,2.69-4,3.45-6.36,3.78A4.51,4.51,0,0,1,51.46,29.06Zm5.27-4.92A48.71,48.71,0,0,1,52,27c-.25.12-.48.23-.72.32l-.35.22a.68.68,0,0,0-.29.64c.07.25.52.29.78.29h0a4.82,4.82,0,0,0,.61-.05c2.39-.34,5.23-1,5.86-3.35l.12-.68a6.16,6.16,0,0,1-1.19-.24Z"/><path class="cls-9" d="M58.14,23.23l.15-.07-.15.07"/><polygon class="cls-8" points="58.28 23.48 57.99 22.99 58.12 22.93 58.43 23.41 58.28 23.48"/><path class="cls-9" d="M57.81,23.36l.13-.05-.13.05"/><polygon class="cls-8" points="57.91 23.62 57.71 23.1 57.81 23.06 58.04 23.57 57.91 23.62"/><path class="cls-9" d="M49.77,11.63s-2.71,0-4.08-.11c-1.65-.19-2.83-1.14-3-1.87a.37.37,0,0,1,.09-.34c-4.14-.34-8.51-.72-9.38-.8-4.36-.45-3,1.61-.49,4.26s6.91,1.83,8.28,1.76c1.09-.06,7-.71,9.49-1a7.21,7.21,0,0,1-.92-1.91"/><path class="cls-8" d="M38.46,15h0a7.62,7.62,0,0,1-5.77-2c-1.71-1.8-2.75-3.18-2.31-4,.31-.63,1.29-.84,3.06-.66.86.09,5.24.47,9.38.81l.61.05L43,9.5s0,0,0,.09a3.1,3.1,0,0,0,2.73,1.65c.88.1,2.36.12,3.16.12H50l.08.2A6.74,6.74,0,0,0,51,13.4l.25.37-.48.05c-.84.09-8.27.92-9.5,1a5.47,5.47,0,0,0-.61,0C40.06,14.91,39.3,15,38.46,15ZM32.35,8.72c-.56,0-1.25.07-1.42.4-.37.73,1.52,2.72,2.22,3.46,1.17,1.24,2.91,1.85,5.31,1.85h0c.81,0,1.55-.07,2.09-.12l.64-.06c1.09-.05,7.16-.72,9-.93a8,8,0,0,1-.64-1.42h-.66c-1,0-2.37,0-3.24-.12-1.77-.19-3.06-1.24-3.24-2.09a.39.39,0,0,1,0-.14l-9-.78A9.85,9.85,0,0,0,32.35,8.72Z"/><path class="cls-9" d="M50.69,13.54c-2.45.28-8.4.93-9.48,1s-4.65.67-7.18-.87c1.15,4.39,5.62,4.35,9.31,3.92a54.44,54.44,0,0,0,9.2-2.37,5.2,5.2,0,0,1-1.85-1.67"/><path class="cls-8" d="M40.56,18c-3.83,0-6.06-1.41-6.82-4.31L33.56,13l.65.39a8,8,0,0,0,4.25,1c.81,0,1.55-.07,2.09-.12l.64-.06c1.17-.06,8.09-.83,9.46-1l.19,0,.11.15A4.85,4.85,0,0,0,52.69,15l.54.29-.58.21a53.85,53.85,0,0,1-9.26,2.38A24.05,24.05,0,0,1,40.56,18Zm-6-3.8c.84,2.22,2.77,3.25,6,3.25a22.82,22.82,0,0,0,2.75-.19,50.26,50.26,0,0,0,8.57-2.16,5.94,5.94,0,0,1-1.35-1.3c-1.72.19-8.16.9-9.31,1a5.29,5.29,0,0,0-.61,0c-.55.05-1.31.12-2.15.12A9.25,9.25,0,0,1,34.53,14.24Z"/><path class="cls-9" d="M55,16a6.63,6.63,0,0,1-2.41-.75,54.44,54.44,0,0,1-9.2,2.37,17.22,17.22,0,0,1-4.7,0c3.38,2.95,6,2.44,9.35,1.61a79.84,79.84,0,0,0,8.52-3c-.46-.1-1-.2-1.56-.28"/><path class="cls-8" d="M44.05,20.15h0a8.27,8.27,0,0,1-5.62-2.33l-.73-.63,1,.16a16.3,16.3,0,0,0,4.62-.05A52.63,52.63,0,0,0,52.43,15l.13,0,.13.06a6.68,6.68,0,0,0,2.3.72c.58.08,1.1.17,1.6.28l.85.19-.81.33a82.18,82.18,0,0,1-8.56,3A16.93,16.93,0,0,1,44.05,20.15ZM39.57,18a7.19,7.19,0,0,0,4.48,1.59h0A16.43,16.43,0,0,0,47.91,19a74.62,74.62,0,0,0,7.62-2.64l-.63-.1a7.34,7.34,0,0,1-2.39-.72,51.75,51.75,0,0,1-9.12,2.34A20.32,20.32,0,0,1,39.57,18Z"/><path class="cls-9" d="M55.85,16.1h0c.24,0,.47.08.67.13l-1.11.44A62.43,62.43,0,0,1,48,19.23l-.47.12-.08,0-.46.11H46.9l-.45.1-.07,0-.94.16h0l-.44,0h-.08l-.44,0h-.51a5,5,0,0,1-.73.1s3,3.08,8.56.88a41.59,41.59,0,0,0,7.36-3.66,11,11,0,0,0-3.26-1.09"/><path class="cls-8" d="M47.91,21.92h0A7.15,7.15,0,0,1,43,20.15l-.43-.44.64,0a6.25,6.25,0,0,0,.69-.09h.5l.4,0,.17,0,.41,0,.08,0,.89-.15.46-.1.15.25-.08-.26.45-.11.08,0,.55-.14a61.4,61.4,0,0,0,7.36-2.53l.52-.21v-.11h-.27v-.33l.37.06c.24.05.47.09.69.15l.84.18-.06,0a11,11,0,0,1,1.88.77l.41.21-.38.26a42,42,0,0,1-7.42,3.68A10.8,10.8,0,0,1,47.91,21.92Zm-4-1.76a7.09,7.09,0,0,0,4,1.2h0a10.09,10.09,0,0,0,3.72-.76,43.15,43.15,0,0,0,6.9-3.38,9.82,9.82,0,0,0-2-.69l-1,.41a62.74,62.74,0,0,1-7.45,2.56l-.47.11-.09,0-.46.1-.15-.25.07.27-.46.1c-.39.08-.7.14-1,.18L45,20.1l-.13-.26,0,.27H44.8l-.35,0h-.58Z"/><path class="cls-9" d="M61,18.24c-.75-.42-1.36-.76-1.93-1a41.59,41.59,0,0,1-7.36,3.66,11.28,11.28,0,0,1-2.68.71A6.33,6.33,0,0,0,55,21.8a53.82,53.82,0,0,0,6.08-3.55h0"/><path class="cls-8" d="M52.29,22.7h0a6.87,6.87,0,0,1-3.39-.91l-.68-.4.81-.1a11,11,0,0,0,2.6-.69A41.48,41.48,0,0,0,58.93,17l.16-.1.17.08c.45.22.92.48,1.46.79l.48.26.31.23-.28.24a52.83,52.83,0,0,1-6.11,3.58A6.51,6.51,0,0,1,52.29,22.7Zm-2.33-1a6.23,6.23,0,0,0,2.33.46h0a5.88,5.88,0,0,0,2.55-.59,53.72,53.72,0,0,0,5.68-3.29l-.12-.07-1.27-.68a42.49,42.49,0,0,1-7.26,3.58A11.94,11.94,0,0,1,50,21.69Z"/><path class="cls-9" d="M61.06,18.25A55.4,55.4,0,0,1,55,21.8a5.9,5.9,0,0,1-2.53.62l-.33.19s4.32,2.13,6.82.15a13.87,13.87,0,0,0,3.35-3.69,10.11,10.11,0,0,0-1.23-.82"/><path class="cls-8" d="M56.2,23.88h0a10.9,10.9,0,0,1-4.23-1l-.46-.23.84-.47h.09a5.85,5.85,0,0,0,2.4-.59,54.6,54.6,0,0,0,6-3.53l.16-.11.17.09a11.12,11.12,0,0,1,1.27.84l.18.15-.11.19A13.67,13.67,0,0,1,59.14,23,4.65,4.65,0,0,1,56.2,23.88ZM53,22.66a9.45,9.45,0,0,0,3.23.67,4.08,4.08,0,0,0,2.55-.78,13.74,13.74,0,0,0,3.15-3.42c-.28-.2-.56-.39-.83-.55a52.36,52.36,0,0,1-6,3.46A6.16,6.16,0,0,1,53,22.66Z"/><path class="cls-9" d="M45.24,9C45.85,9,48,9.07,49,9s3-1.09,4.34-1.27,3,0,3.94,1.27a15.42,15.42,0,0,1,1.58,3.78,16.77,16.77,0,0,0,8.24,7.42l-1.37,2.24A19,19,0,0,0,61,18.24c-2.38-1.32-3.3-1.9-6.09-2.28a5.82,5.82,0,0,1-5.18-4.33s-2.71,0-4.08-.11c-1.65-.19-2.83-1.14-3-1.87S44.24,9,45.24,9"/><path class="cls-8" d="M65.72,23l-.28-.36a18.94,18.94,0,0,0-4.56-4.15l-.33-.18a12.87,12.87,0,0,0-5.65-2.06,6,6,0,0,1-5.35-4.33h-.66c-1,0-2.37,0-3.24-.12-1.77-.19-3.06-1.24-3.25-2.09a.61.61,0,0,1,.14-.54c.37-.42,1.31-.43,2.21-.44h.48c.26,0,.79,0,1.39,0,.81,0,1.76,0,2.33,0a9.32,9.32,0,0,0,2-.58,13.45,13.45,0,0,1,2.29-.69,7.73,7.73,0,0,1,1-.06A3.87,3.87,0,0,1,57.5,8.87a9.15,9.15,0,0,1,1.22,2.71c.12.38.24.76.39,1.13A16.7,16.7,0,0,0,67.18,20l.32.12ZM50,11.35l.07.2A5.49,5.49,0,0,0,55,15.69a13.52,13.52,0,0,1,5.88,2.13l.33.18a18,18,0,0,1,4.45,4l1-1.6a17.36,17.36,0,0,1-8.1-7.46c-.15-.39-.27-.77-.39-1.17A8.45,8.45,0,0,0,57,9.17,3.29,3.29,0,0,0,54.21,8a6.36,6.36,0,0,0-.87.06,11.79,11.79,0,0,0-2.15.65A9.19,9.19,0,0,1,49,9.3c-.59,0-1.55,0-2.37,0-.59,0-1.1,0-1.35,0h-.5c-.58,0-1.56,0-1.75.23,0,0,0,0,0,.09a3.14,3.14,0,0,0,2.74,1.65c.88.1,2.35.12,3.16.12H50Z"/><path class="cls-9" d="M49.56,11.67c.53,0,2.56-.37,3.8.58,1.46,1.13,2.31,1.84,2.31,1.84"/><path class="cls-8" d="M55.46,14.29s-.87-.72-2.3-1.83a4.77,4.77,0,0,0-3.2-.54l-.4,0v-.55l.35,0a5.38,5.38,0,0,1,3.64.67c1.45,1.12,2.32,1.84,2.32,1.85Z"/><path class="cls-9" d="M58.14,23.23l.15-.07-.15.07"/><polygon class="cls-8" points="58.28 23.48 57.99 22.99 58.12 22.93 58.43 23.41 58.28 23.48"/><path class="cls-9" d="M57.81,23.36l.13-.05-.13.05"/><polygon class="cls-8" points="57.91 23.62 57.71 23.1 57.81 23.06 58.04 23.57 57.91 23.62"/><path class="cls-9" d="M62.29,19.07a13.87,13.87,0,0,1-3.35,3.69,3.85,3.85,0,0,1-1.46.69c-.22.21-.4.38-.52.48s3.29,1.11,5.46-1.21a6.15,6.15,0,0,0,1.47-2.24,17.12,17.12,0,0,0-1.6-1.41"/><path class="cls-8" d="M58.8,24.47a6.7,6.7,0,0,1-1.94-.28L56.41,24l.34-.3.52-.48.06-.05.08,0a3.43,3.43,0,0,0,1.33-.64A13.53,13.53,0,0,0,62,18.94l.17-.3.29.21a19.42,19.42,0,0,1,1.64,1.44l.11.12,0,.15a6.91,6.91,0,0,1-1.54,2.34A5.15,5.15,0,0,1,58.8,24.47Zm-1.25-.68a5.77,5.77,0,0,0,1.25.13,4.4,4.4,0,0,0,3.38-1.38,6.29,6.29,0,0,0,1.37-2,15.17,15.17,0,0,0-1.18-1.05A14.46,14.46,0,0,1,59.14,23a4.2,4.2,0,0,1-1.5.73Z"/><path class="cls-9" d="M65.1,22.24h.4a0,0,0,0,1,0,0,20.48,20.48,0,0,0-1.62-1.76,6.18,6.18,0,0,1-1.3,2,12.22,12.22,0,0,1,2.51-.28"/><path class="cls-8" d="M61.8,23l.56-.63a5.89,5.89,0,0,0,1.24-2l.15-.46.37.35a22,22,0,0,1,1.63,1.79l.1.11-.12.34h-.24a10.63,10.63,0,0,0-2.83.26ZM64,21a7.3,7.3,0,0,1-.7,1.11A10.91,10.91,0,0,1,64.9,22C64.66,21.7,64.36,21.36,64,21Z"/><path class="cls-9" d="M97.17,32c0-5.39-4.81-9.77-10.75-9.77H86a11.13,11.13,0,0,0-20.35,0h-.4c-5.94,0-10.75,4.38-10.75,9.77a9.59,9.59,0,0,0,4.74,8.11A9.23,9.23,0,0,0,58.82,43c0,5.39,4.8,9.77,10.74,9.77A11.42,11.42,0,0,0,76,50.78a11.47,11.47,0,0,0,6.44,1.95c5.94,0,10.75-4.38,10.75-9.77a8.8,8.8,0,0,0-.52-3,9.53,9.53,0,0,0,4.5-8"/><path class="cls-8" d="M82.44,53A11.75,11.75,0,0,1,76,51.12,11.7,11.7,0,0,1,69.56,53c-6.09,0-11-4.5-11-10a9.35,9.35,0,0,1,.4-2.73A9.8,9.8,0,0,1,54.23,32c0-5.54,5-10,11.05-10h.19a11.46,11.46,0,0,1,20.77,0c6.18-.1,11.23,4.45,11.23,10A9.78,9.78,0,0,1,93,40.06a8.94,8.94,0,0,1,.47,2.9C93.49,48.5,88.54,53,82.44,53ZM76,50.43l.19.13a11,11,0,0,0,6.25,1.89c5.76,0,10.45-4.26,10.45-9.49A8.55,8.55,0,0,0,92.38,40l-.07-.19.18-.12A9.27,9.27,0,0,0,96.87,32c0-5.23-4.69-9.49-10.45-9.49h-.61l-.07-.2a10.81,10.81,0,0,0-19.77,0l-.08.2h-.61c-5.76,0-10.44,4.26-10.44,9.49a9.28,9.28,0,0,0,4.61,7.88l.18.11-.06.2A8.63,8.63,0,0,0,59.12,43c0,5.23,4.68,9.49,10.44,9.49a11,11,0,0,0,6.26-1.89Z"/><path class="cls-9" d="M75.89,33.66,67.32,22.88a9.49,9.49,0,0,1,17.15,0Z"/><path class="cls-8" d="M75.89,34.13,67,22.93l0-.14a9.79,9.79,0,0,1,17.72,0l.06.14ZM67.66,22.84l8.23,10.35,8.24-10.35a9.19,9.19,0,0,0-16.47,0Z"/><path class="cls-9" d="M73.94,34.55,60,38.48a7.86,7.86,0,0,1-2.89-9.13,9.08,9.08,0,0,1,8.41-5.64Z"/><path class="cls-8" d="M59.89,38.78l-.12-.09a8.12,8.12,0,0,1-3-9.43,9.42,9.42,0,0,1,8.69-5.82h.16l8.81,11.28ZM65.31,24a8.81,8.81,0,0,0-8,5.45A7.64,7.64,0,0,0,60,38.17L73.44,34.4Z"/><path class="cls-9" d="M77.75,34.55l14,3.93a7.87,7.87,0,0,0,2.9-9.13,9.08,9.08,0,0,0-8.41-5.64Z"/><path class="cls-8" d="M91.79,38.78,77.26,34.71l8.8-11.28h.17a9.42,9.42,0,0,1,8.69,5.82,8.14,8.14,0,0,1-3,9.43ZM78.24,34.4l13.42,3.77a7.62,7.62,0,0,0,2.69-8.73,8.82,8.82,0,0,0-8-5.45Z"/><path class="cls-9" d="M75,36.2l0,13.3a9.92,9.92,0,0,1-10.45-.2,7.92,7.92,0,0,1-3.41-9Z"/><path class="cls-8" d="M69.87,51.17a10,10,0,0,1-5.55-1.65,8.2,8.2,0,0,1-3.53-9.27l0-.14L75.3,35.82l0,13.83-.14.08A10.12,10.12,0,0,1,69.87,51.17ZM61.33,40.54a7.69,7.69,0,0,0,3.35,8.54,9.3,9.3,0,0,0,5.19,1.54,9.46,9.46,0,0,0,4.77-1.27l0-12.76Z"/><path class="cls-9" d="M77.08,36.2l0,13.3a9.92,9.92,0,0,0,10.45-.2,7.9,7.9,0,0,0,3.41-9Z"/><path class="cls-8" d="M82.21,51.17h0A10.15,10.15,0,0,1,77,49.73l-.14-.08,0-13.83,14.46,4.29,0,.14a8.19,8.19,0,0,1-3.52,9.27A10,10,0,0,1,82.21,51.17Zm-4.78-1.82a9.49,9.49,0,0,0,4.78,1.27,9.35,9.35,0,0,0,5.19-1.54,7.71,7.71,0,0,0,3.35-8.54L77.38,36.59Z"/><path class="cls-9" d="M83.05,30.57v7.24l-5,4.57h-3.9l-5-4.57V30.57c0-.66,1.28-2.13,2.69-3.26s2.55-4,1.1-5.55c0,0,4.4,1.21,5.33,3.6,0,0,3.15.62,3.51,3.05a3.21,3.21,0,0,1,1.33,2.16"/><path class="cls-8" d="M78.15,42.66H74l-5.22-4.74V30.57c0-.8,1.4-2.35,2.79-3.47s2.36-3.82,1.07-5.16l-.7-.73,1,.28c.19.06,4.4,1.24,5.48,3.63.67.17,3.16.94,3.57,3.14a3.36,3.36,0,0,1,1.35,2.31v7.35Zm-3.9-.55h3.64l4.86-4.42V30.57a2.89,2.89,0,0,0-1.21-1.94l-.1-.07,0-.12c-.33-2.2-3.25-2.81-3.27-2.81l-.17,0-.06-.14c-.63-1.63-3-2.7-4.32-3.16.78,1.69-.26,4.14-1.61,5.22-1.56,1.25-2.59,2.59-2.59,3.06v7.12Z"/><path class="cls-9" d="M78.17,25.32a5.35,5.35,0,0,1-1.9,3.82c-2,1.84-2.38,2.1-2.38,4.15v3.86"/><path class="cls-8" d="M74.19,37.15h-.61V33.29c0-2.06.41-2.44,2.17-4.06l.31-.28a5.19,5.19,0,0,0,1.81-3.62l.6,0a5.55,5.55,0,0,1-2,4l-.31.29c-1.69,1.56-2,1.84-2,3.67Z"/><path class="cls-9" d="M81.68,28.37a6,6,0,0,1-1.49,2c-1.13,1.06-1.37,1.14-1.37,2.46v4.3"/><path class="cls-8" d="M79.12,37.15h-.61v-4.3a2.48,2.48,0,0,1,1.14-2.36L80,30.2a5.91,5.91,0,0,0,1.43-1.92l.57.18a6.53,6.53,0,0,1-1.56,2.12l-.33.3c-.83.78-1,.9-1,2Z"/><path class="cls-9" d="M79.38,43.64a1.58,1.58,0,0,1-1.66,1.51H74.43a1.52,1.52,0,1,1,0-3h3.29a1.58,1.58,0,0,1,1.66,1.51"/><path class="cls-8" d="M77.72,45.43H74.43a1.8,1.8,0,1,1,0-3.58h3.29a1.8,1.8,0,1,1,0,3.58Zm-3.29-3a1.24,1.24,0,1,0,0,2.47h3.29a1.24,1.24,0,1,0,0-2.47Z"/><path class="cls-9" d="M56.11,47.39a12,12,0,0,1,4.26.63A9,9,0,0,1,58.82,43v-.12a6,6,0,0,0-2.71,4.55"/><path class="cls-8" d="M61.08,48.56l-.82-.28a11.88,11.88,0,0,0-4.12-.62l-.34,0v-.31a6.29,6.29,0,0,1,2.84-4.77l.48-.31V43a8.77,8.77,0,0,0,1.51,4.91Zm-4.46-1.48a13.45,13.45,0,0,1,3.11.46,9.23,9.23,0,0,1-1.21-4.14,5.82,5.82,0,0,0-2.08,3.69Z"/><path class="cls-9" d="M61.32,52.94s-2.67.81-3.47-1.21c0,0-1.92,1.3-3,.62,0,0,0,0-.07-.05v0c-.16.41-.59,2.24-.75,3a1.35,1.35,0,0,1,.59.06,2,2,0,0,1,1.19,1.08v0a1.53,1.53,0,0,1,1.67-.37,1.26,1.26,0,0,1,.81,1.56c0-.1,0-.2,0-.28a1.49,1.49,0,0,1,1.39,0,1.13,1.13,0,0,1,.62.63,6.6,6.6,0,0,0,2.73-2.88,2.37,2.37,0,0,1-1.74-2.16"/><path class="cls-8" d="M60.17,58.39l-.12-.31a.89.89,0,0,0-.48-.49,1.19,1.19,0,0,0-1-.07.22.22,0,0,1,0,.08h0l-.3,0L58,57.54c.1-.86-.31-1.11-.63-1.22a1.24,1.24,0,0,0-1.32.28l-.26-.18-.26.1a1.67,1.67,0,0,0-1-.93,1,1,0,0,0-.44-.05l-.42,0,.09-.37c.27-1.21.6-2.61.75-3l.07-.1.2-.18.23.15a1,1,0,0,0,.61.18,4.8,4.8,0,0,0,2.07-.76l.33-.23.14.35a1.93,1.93,0,0,0,2,1.2,4.11,4.11,0,0,0,1.08-.15l.35-.1,0,.33a2.1,2.1,0,0,0,1.51,1.92l.37.08-.16.31a6.84,6.84,0,0,1-2.86,3ZM59,56.9a2.09,2.09,0,0,1,.86.2,1.42,1.42,0,0,1,.61.49,6.25,6.25,0,0,0,2.19-2.32,2.67,2.67,0,0,1-1.56-2c-.74.15-2.54.33-3.37-1.14a4.61,4.61,0,0,1-2.11.68,1.91,1.91,0,0,1-.64-.1c-.16.56-.41,1.63-.56,2.28a1.65,1.65,0,0,1,.32.07,2.3,2.3,0,0,1,1.18.9,2,2,0,0,1,1.7-.16,1.41,1.41,0,0,1,1,1.14A1.31,1.31,0,0,1,59,56.9Z"/><path class="cls-9" d="M60.36,48c-1.17-.4-3.75-.92-4.82-.52a2.07,2.07,0,0,0-1.25,2.43,2.28,2.28,0,0,0,.57,2.42c1.07.68,3-.62,3-.62.8,2,3.47,1.21,3.47,1.21.28,1.91,1.9,2.79,3.4,1.76a3.74,3.74,0,0,0,1.49-2.46A10.71,10.71,0,0,1,60.36,48"/><path class="cls-8" d="M63.43,55.41h0a2.48,2.48,0,0,1-2.35-2.13c-.74.15-2.54.33-3.37-1.14a4.61,4.61,0,0,1-2.11.68,1.67,1.67,0,0,1-.91-.24A2.47,2.47,0,0,1,54,49.93a2.3,2.3,0,0,1,1.45-2.68,3.45,3.45,0,0,1,1.19-.17,13.88,13.88,0,0,1,3.85.68l.1,0,0,.08A10.42,10.42,0,0,0,66.31,52l.24.07,0,.23a4,4,0,0,1-1.61,2.64A2.64,2.64,0,0,1,63.43,55.41Zm-1.86-2.83,0,.33c.17,1.17.9,2,1.81,2h0a2,2,0,0,0,1.1-.38,3.45,3.45,0,0,0,1.34-2.06,10.93,10.93,0,0,1-5.71-4.18,13.17,13.17,0,0,0-3.54-.61,3,3,0,0,0-1,.13,1.78,1.78,0,0,0-1.07,2.1V50A2.09,2.09,0,0,0,55,52.13a1,1,0,0,0,.57.14,4.8,4.8,0,0,0,2.07-.76l.33-.23.14.35a1.93,1.93,0,0,0,2,1.2,4.11,4.11,0,0,0,1.08-.15Z"/><polygon class="cls-9" points="50 55.16 67.07 62.99 65.47 66.05 48.21 58.66 50 55.16"/><path class="cls-8" d="M65.61,66.41l-17.8-7.62,2-4,17.61,8.08Zm-17-7.88,16.72,7.15,1.34-2.57L50.15,55.54Z"/><path class="cls-9" d="M50,55.16a1.81,1.81,0,0,0-2.28-1s-1.58,3-1.81,3.46,1,1.56,2.3,1Z"/><path class="cls-8" d="M47.47,59.09h0a2.18,2.18,0,0,1-1.7-.8.74.74,0,0,1-.13-.75c.23-.47,1.75-3.35,1.81-3.47l.06-.12.15,0a3.34,3.34,0,0,1,.68-.07,2,2,0,0,1,1.94,1.21l.06.11-1.9,3.7-.1,0A2.19,2.19,0,0,1,47.47,59.09Zm.46-4.66c-.3.57-1.54,2.92-1.74,3.33a.31.31,0,0,0,.09.22,1.54,1.54,0,0,0,1.19.56h0a1.44,1.44,0,0,0,.51-.09l1.69-3.29A1.51,1.51,0,0,0,47.93,54.43Z"/><path class="cls-9" d="M47.85,54.15S45,52.6,44.16,52a2.4,2.4,0,0,0-3.31,1.13c-.8,1.5-.39,2.74.61,3.11,1.66.61,4.41,1.55,4.41,1.55Z"/><path class="cls-8" d="M46,58.16l-.26-.08s-2.77-.95-4.42-1.55a1.8,1.8,0,0,1-1.05-1A2.89,2.89,0,0,1,40.58,53a2.83,2.83,0,0,1,2.51-1.58,2.33,2.33,0,0,1,1.24.34c.87.56,3.65,2.1,3.68,2.12l.24.13ZM43.09,52a2.25,2.25,0,0,0-2,1.27,2.41,2.41,0,0,0-.26,2,1.18,1.18,0,0,0,.71.69c1.34.5,3.42,1.21,4.14,1.46l1.75-3.22c-.7-.38-2.73-1.52-3.48-2A1.63,1.63,0,0,0,43.09,52Z"/><path class="cls-9" d="M40.78,55.73c1,.74,2.32-.1,2.95-1.26s.68-2.47-.51-2.7"/><path class="cls-8" d="M41.61,56.29a1.69,1.69,0,0,1-1-.35l.38-.42a1.09,1.09,0,0,0,.88.19,2.62,2.62,0,0,0,1.62-1.37,2.24,2.24,0,0,0,.26-1.92.75.75,0,0,0-.56-.38l.13-.54a1.36,1.36,0,0,1,1,.68A2.76,2.76,0,0,1,44,54.59a3.22,3.22,0,0,1-2,1.66A2.2,2.2,0,0,1,41.61,56.29Z"/><line class="cls-9" x1="45.02" y1="53.85" x2="47.12" y2="54.93"/><polygon class="cls-8" points="46.97 55.17 44.87 54.09 45.17 53.61 47.27 54.69 46.97 55.17"/><line class="cls-9" x1="44.63" y1="55.02" x2="46.68" y2="55.82"/><polygon class="cls-8" points="46.56 56.07 44.52 55.27 44.75 54.77 46.79 55.56 46.56 56.07"/><line class="cls-9" x1="43.8" y1="55.95" x2="46.14" y2="56.82"/><polygon class="cls-8" points="46.02 57.08 43.68 56.21 43.92 55.7 46.25 56.57 46.02 57.08"/><path class="cls-9" d="M55.63,56.72a1.43,1.43,0,0,1,1.85-.66c.73.26,1.05.88.69,2.09A51.7,51.7,0,0,1,56.11,63a1.14,1.14,0,0,1-2.18-.26c-.09-.59.85-3.6,1.7-6"/><path class="cls-8" d="M55.09,64a1.52,1.52,0,0,1-1.46-1.21c-.14-.91,1.63-5.9,1.71-6.11a1.59,1.59,0,0,1,1.56-1,2.1,2.1,0,0,1,.7.12c.65.23,1.33.84.86,2.42-.29,1-1.76,4.27-2.08,4.86A1.47,1.47,0,0,1,55.09,64Zm1.81-7.72a1,1,0,0,0-1,.56,29.38,29.38,0,0,0-1.69,5.87.83.83,0,0,0,1.61.18c.31-.57,1.76-3.85,2-4.77.38-1.28-.11-1.62-.51-1.76A1.26,1.26,0,0,0,56.9,56.24Z"/><path class="cls-9" d="M53.92,62.71c-.08-.59.86-3.6,1.71-6a.9.9,0,0,1,.18-.31,2,2,0,0,0-1.19-1.08c-1.22-.41-2.07.92-2.27,1.76a24.5,24.5,0,0,0-.41,4.11,1.59,1.59,0,0,0,2,1.73h0a1.72,1.72,0,0,1-.07-.21"/><path class="cls-8" d="M53.48,63.27h0a1.88,1.88,0,0,1-1.84-2.07A25,25,0,0,1,52.05,57c.2-.79.94-2.05,2.12-2.05a1.81,1.81,0,0,1,.55.09,2.26,2.26,0,0,1,1.37,1.24l.07.15-.11.12a.66.66,0,0,0-.13.22,29.57,29.57,0,0,0-1.69,5.87.58.58,0,0,0,.05.16l.1.29-.31.07A2.6,2.6,0,0,1,53.48,63.27Zm.69-7.74c-.77,0-1.37,1-1.52,1.62a24.77,24.77,0,0,0-.4,4.05c0,.73.38,1.6,1.37,1.51-.09-1,1.64-5.86,1.72-6.07a1.42,1.42,0,0,1,.12-.25,1.62,1.62,0,0,0-1-.8A1.06,1.06,0,0,0,54.17,55.53Z"/><path class="cls-9" d="M59.71,57.35a1.49,1.49,0,0,0-1.39,0,3.34,3.34,0,0,1-.15.81A51.7,51.7,0,0,1,56.11,63a1.46,1.46,0,0,1-.5.56,1.2,1.2,0,0,0,1.92.1,9.81,9.81,0,0,0,2.34-3.24c.92-1.77.61-2.71-.16-3"/><path class="cls-8" d="M56.53,64.33h0a1.29,1.29,0,0,1-1.2-.7l-.09-.21.2-.12a1.27,1.27,0,0,0,.4-.45c.31-.57,1.76-3.85,2-4.77a3.16,3.16,0,0,0,.14-.75v-.16l.16-.08a1.8,1.8,0,0,1,1.66,0c.51.22,1.56,1,.3,3.41a10.08,10.08,0,0,1-2.4,3.31A1.76,1.76,0,0,1,56.53,64.33ZM56,63.58a.79.79,0,0,0,.53.2,1.1,1.1,0,0,0,.77-.34,9.48,9.48,0,0,0,2.29-3.16c.73-1.39.72-2.37,0-2.69a1.16,1.16,0,0,0-1-.07,3.35,3.35,0,0,1-.15.71c-.29,1-1.76,4.27-2.08,4.86A1.57,1.57,0,0,1,56,63.58Z"/><path class="cls-9" d="M54.28,49.1c0,.7.73,1.32,2.06.55,0,0,.31,1.5,2.39.67a1.85,1.85,0,0,0,2.63,1.31"/><path class="cls-8" d="M60.47,52.05a2.06,2.06,0,0,1-1-.23,2.13,2.13,0,0,1-.95-1.13,2.27,2.27,0,0,1-1.69,0,1.44,1.44,0,0,1-.66-.63,1.74,1.74,0,0,1-1.56.09,1.14,1.14,0,0,1-.64-1h.6a.6.6,0,0,0,.32.56,1.45,1.45,0,0,0,1.28-.24l.38-.22.09.4a1,1,0,0,0,.48.6,1.92,1.92,0,0,0,1.47-.13l.36-.14.07.34a1.73,1.73,0,0,0,.77,1.08,1.87,1.87,0,0,0,1.46,0l.2.52A3.12,3.12,0,0,1,60.47,52.05Z"/><path class="cls-9" d="M95.87,47.39A12.07,12.07,0,0,0,91.6,48,9.06,9.06,0,0,0,93.16,43v-.12a6,6,0,0,1,2.71,4.55"/><path class="cls-8" d="M90.89,48.55l.45-.68A8.8,8.8,0,0,0,92.86,43V42.3l.47.31a6.24,6.24,0,0,1,2.85,4.77v.31l-.34,0a12,12,0,0,0-4.13.62Zm2.56-5.15a9.35,9.35,0,0,1-1.2,4.14,13,13,0,0,1,3.29-.45A5.85,5.85,0,0,0,93.45,43.4Z"/><path class="cls-9" d="M90.65,52.94s2.67.81,3.48-1.21c0,0,1.92,1.3,3,.62l.06-.05,0,0c.16.41.58,2.24.75,3a1.35,1.35,0,0,0-.59.06,2,2,0,0,0-1.2,1.08s0,0,0,0a1.56,1.56,0,0,0-1.68-.37,1.26,1.26,0,0,0-.81,1.56c0-.1,0-.2,0-.28a1.49,1.49,0,0,0-1.39,0,1.18,1.18,0,0,0-.63.63,6.66,6.66,0,0,1-2.73-2.88,2.36,2.36,0,0,0,1.74-2.16"/><path class="cls-8" d="M91.8,58.39l-.31-.17a6.83,6.83,0,0,1-2.85-3l-.16-.31.37-.08a2.11,2.11,0,0,0,1.51-1.92l0-.33.35.1a4.24,4.24,0,0,0,1.09.15,1.94,1.94,0,0,0,2-1.2l.14-.34.33.22a4.74,4.74,0,0,0,2.07.76,1,1,0,0,0,.57-.14l.22-.19.31.28c.21.51.74,2.89.76,3l.08.37-.41,0a.94.94,0,0,0-.44.05,1.62,1.62,0,0,0-1,.93l-.24-.09,0,0-.22.17,0,0a1.28,1.28,0,0,0-1.32-.26c-.31.11-.73.37-.61,1.24l-.6.09h0v0s0-.07,0-.11a1.13,1.13,0,0,0-1,.08.85.85,0,0,0-.47.48Zm-2.46-3.12a6.31,6.31,0,0,0,2.18,2.32,1.45,1.45,0,0,1,.62-.49A1.8,1.8,0,0,1,93.38,57a1.43,1.43,0,0,1,1-1.14,2,2,0,0,1,1.7.16,2.17,2.17,0,0,1,1.18-.9,1.73,1.73,0,0,1,.31-.07c-.17-.77-.41-1.76-.56-2.28a1.85,1.85,0,0,1-.63.1,4.69,4.69,0,0,1-2.12-.68c-.83,1.47-2.62,1.29-3.36,1.14A2.69,2.69,0,0,1,89.34,55.27Z"/><path class="cls-9" d="M91.61,48c1.18-.4,3.76-.92,4.82-.52a2.06,2.06,0,0,1,1.26,2.43,2.28,2.28,0,0,1-.57,2.42c-1.07.68-3-.62-3-.62-.81,2-3.48,1.21-3.48,1.21-.28,1.91-1.89,2.79-3.39,1.76a3.66,3.66,0,0,1-1.49-2.46A10.69,10.69,0,0,0,91.61,48"/><path class="cls-8" d="M88.55,55.41a2.61,2.61,0,0,1-1.47-.49,3.91,3.91,0,0,1-1.61-2.64l0-.23.24-.07a10.38,10.38,0,0,0,5.68-4.11l.06-.08.1,0a13.88,13.88,0,0,1,3.85-.68,3.45,3.45,0,0,1,1.19.17A2.3,2.3,0,0,1,98,49.93a2.47,2.47,0,0,1-.7,2.65,1.69,1.69,0,0,1-.91.24,4.69,4.69,0,0,1-2.12-.68c-.83,1.47-2.62,1.29-3.36,1.14A2.49,2.49,0,0,1,88.55,55.41Zm-2.44-3a3.34,3.34,0,0,0,1.33,2.06,2,2,0,0,0,1.11.38c.91,0,1.63-.78,1.81-2l0-.33.35.1a4.24,4.24,0,0,0,1.09.15,1.94,1.94,0,0,0,2-1.2l.14-.34.33.22a4.74,4.74,0,0,0,2.07.76,1,1,0,0,0,.57-.14A2.09,2.09,0,0,0,97.39,50l0-.06,0-.06a1.79,1.79,0,0,0-1.07-2.11c-.81-.31-3.24.07-4.51.48A10.87,10.87,0,0,1,86.11,52.42Z"/><polygon class="cls-9" points="101.98 55.16 84.91 62.99 86.51 66.05 103.77 58.66 101.98 55.16"/><path class="cls-8" d="M86.37,66.41,84.5,62.87l17.62-8.08,2,4Zm-1.06-3.3,1.34,2.57,16.72-7.15-1.53-3Z"/><path class="cls-9" d="M102,55.16a1.8,1.8,0,0,1,2.28-1s1.57,3,1.8,3.46-1,1.56-2.29,1Z"/><path class="cls-8" d="M104.5,59.09a2.18,2.18,0,0,1-.86-.18l-.1,0-1.89-3.7,0-.11a2,2,0,0,1,1.94-1.21,3.34,3.34,0,0,1,.68.07l.14,0,.07.12c.06.12,1.58,3,1.81,3.47a.75.75,0,0,1-.14.75A2.15,2.15,0,0,1,104.5,59.09Zm-.51-.64A1.65,1.65,0,0,0,105.7,58c.09-.13.09-.2.08-.22-.2-.41-1.43-2.76-1.73-3.33a1.51,1.51,0,0,0-1.74.73Z"/><path class="cls-9" d="M104.13,54.15s2.8-1.55,3.69-2.12a2.4,2.4,0,0,1,3.31,1.13c.8,1.5.38,2.74-.61,3.11-1.66.61-4.41,1.55-4.41,1.55Z"/><path class="cls-8" d="M106,58.16l-2.23-4.11.23-.13s2.81-1.56,3.69-2.12a2.3,2.3,0,0,1,1.24-.34A2.85,2.85,0,0,1,111.4,53a2.92,2.92,0,0,1,.29,2.48,1.83,1.83,0,0,1-1,1c-1.65.6-4.39,1.53-4.42,1.55Zm-1.44-3.91,1.74,3.22c.72-.25,2.81-1,4.14-1.46a1.22,1.22,0,0,0,.72-.69,2.44,2.44,0,0,0-.26-2,2.25,2.25,0,0,0-2-1.27,1.66,1.66,0,0,0-.9.25C107.25,52.73,105.22,53.87,104.52,54.25Z"/><path class="cls-9" d="M111.2,55.73c-1,.74-2.33-.1-3-1.26s-.68-2.47.51-2.7"/><path class="cls-8" d="M110.37,56.29a2.33,2.33,0,0,1-.37,0,3.2,3.2,0,0,1-2-1.66,2.68,2.68,0,0,1-.26-2.4,1.33,1.33,0,0,1,1-.69l.12.54a.76.76,0,0,0-.57.39,2.23,2.23,0,0,0,.27,1.91,2.64,2.64,0,0,0,1.61,1.37,1.1,1.1,0,0,0,.88-.19l.38.42A1.68,1.68,0,0,1,110.37,56.29Z"/><line class="cls-9" x1="106.96" y1="53.85" x2="104.86" y2="54.93"/><polygon class="cls-8" points="105.01 55.17 104.72 54.69 106.8 53.61 107.11 54.09 105.01 55.17"/><line class="cls-9" x1="107.34" y1="55.02" x2="105.3" y2="55.82"/><polygon class="cls-8" points="105.42 56.07 105.18 55.56 107.23 54.77 107.46 55.27 105.42 56.07"/><line class="cls-9" x1="108.18" y1="55.95" x2="105.84" y2="56.82"/><polygon class="cls-8" points="105.96 57.08 105.72 56.57 108.06 55.7 108.29 56.21 105.96 57.08"/><path class="cls-9" d="M96.35,56.72a1.44,1.44,0,0,0-1.85-.66c-.73.26-1.06.88-.69,2.09a49.2,49.2,0,0,0,2,4.82,1.15,1.15,0,0,0,2.19-.26,30.3,30.3,0,0,0-1.7-6"/><path class="cls-8" d="M96.89,64h0a1.47,1.47,0,0,1-1.29-.87,50.31,50.31,0,0,1-2.09-4.86c-.47-1.58.21-2.19.87-2.42a2.06,2.06,0,0,1,.7-.12,1.61,1.61,0,0,1,1.56.94c.19.54,1.84,5.25,1.71,6.12A1.53,1.53,0,0,1,96.89,64Zm-1.81-7.72a1.31,1.31,0,0,0-.48.08c-.39.14-.89.48-.5,1.76.26.87,1.69,4.13,2,4.76a.83.83,0,0,0,1.62-.17,29.57,29.57,0,0,0-1.69-5.86A1,1,0,0,0,95.08,56.24Z"/><path class="cls-9" d="M98.05,62.71a30.3,30.3,0,0,0-1.7-6,.93.93,0,0,0-.19-.31,2,2,0,0,1,1.2-1.08c1.21-.41,2.07.92,2.26,1.76A24.5,24.5,0,0,1,100,61.2a1.58,1.58,0,0,1-2,1.73h0a.58.58,0,0,0,.07-.21"/><path class="cls-8" d="M98.49,63.27a2.59,2.59,0,0,1-.55-.07l-.36-.07.12-.3a1.42,1.42,0,0,0,0-.16,29.57,29.57,0,0,0-1.69-5.86.78.78,0,0,0-.13-.23l-.11-.12.06-.15a2.26,2.26,0,0,1,1.38-1.24,1.76,1.76,0,0,1,.55-.09C99,55,99.73,56.24,99.92,57a25.15,25.15,0,0,1,.41,4.17A1.86,1.86,0,0,1,98.49,63.27Zm-.13-.56h.13c.91,0,1.24-.81,1.24-1.51a24.88,24.88,0,0,0-.4-4.05c-.18-.75-.94-1.87-1.86-1.56a1.6,1.6,0,0,0-1,.8c0,.08.09.16.12.24C96.83,57.16,98.43,61.75,98.36,62.71Z"/><path class="cls-9" d="M92.27,57.35a1.49,1.49,0,0,1,1.39,0,2.92,2.92,0,0,0,.15.81,49.2,49.2,0,0,0,2,4.82,1.75,1.75,0,0,0,.5.56,1.19,1.19,0,0,1-1.91.1,9.81,9.81,0,0,1-2.34-3.24c-.92-1.77-.61-2.71.16-3"/><path class="cls-8" d="M95.44,64.33a1.78,1.78,0,0,1-1.21-.51,10.09,10.09,0,0,1-2.39-3.31c-1.26-2.42-.2-3.19.3-3.41a1.75,1.75,0,0,1,1.65,0l.17.08v.16a3.35,3.35,0,0,0,.14.75c.28.92,1.72,4.2,2,4.77a1.51,1.51,0,0,0,.41.45l.2.12-.1.21A1.28,1.28,0,0,1,95.44,64.33ZM93,57.45a1.51,1.51,0,0,0-.6.14c-.73.32-.73,1.3,0,2.69a9.59,9.59,0,0,0,2.28,3.16,1.12,1.12,0,0,0,.77.34.79.79,0,0,0,.53-.2,1.91,1.91,0,0,1-.37-.49,51.41,51.41,0,0,1-2.09-4.86,3.29,3.29,0,0,1-.14-.71A1.09,1.09,0,0,0,93,57.45Z"/><path class="cls-9" d="M97.69,49.1c0,.7-.72,1.32-2.06.55,0,0-.3,1.5-2.39.67a1.84,1.84,0,0,1-2.62,1.31"/><path class="cls-8" d="M91.51,52.05a3,3,0,0,1-1-.17l.2-.52a1.87,1.87,0,0,0,1.46,0A1.8,1.8,0,0,0,93,50.28l.06-.35.36.14a1.94,1.94,0,0,0,1.48.13,1,1,0,0,0,.48-.6l.09-.39.37.21a1.45,1.45,0,0,0,1.28.24.61.61,0,0,0,.33-.56H98a1.13,1.13,0,0,1-.63,1,1.76,1.76,0,0,1-1.57-.09,1.44,1.44,0,0,1-.66.63,2.26,2.26,0,0,1-1.69,0,2.08,2.08,0,0,1-1,1.13A2,2,0,0,1,91.51,52.05Z"/></g></g></svg>