<svg id="Layer_1" data-name="Layer 1" xmlns="http://www.w3.org/2000/svg" viewBox="0 0 75.1 75.1"><defs><style>.cls-1{fill:#fff;}.cls-2{fill:#003763;}.cls-3{fill:#e4022d;}</style></defs><path class="cls-1" d="M312.53,119.79A37.55,37.55,0,1,1,275,82.24,37.56,37.56,0,0,1,312.53,119.79Z" transform="translate(-237.43 -82.24)"/><path class="cls-2" d="M292.6,117.17a12.4,12.4,0,0,0-17.64,3.7,12.39,12.39,0,0,1-22.41-3.41h0a.93.93,0,0,1,0-.13.75.75,0,0,0,0-.16,15.9,15.9,0,0,1-.64-4.93c0-11.11,11.41-23.49,27.83-23.49,16.82,0,26.45,12.81,28.94,19.93-.05-.14-.1-.26-.14-.38a35.42,35.42,0,0,0-68.92,11.49c0,17.48,12.61,32.44,30.11,32.44,13.94,0,23.32-7.81,27.61-18.6A13.62,13.62,0,0,0,292.6,117.17Z" transform="translate(-237.43 -82.24)"/><path class="cls-3" d="M308.81,109.36c-2.07-6.94-11.76-20.61-29.15-20.61-16.42,0-27.83,12.38-27.83,23.49a15.9,15.9,0,0,0,.64,4.93,10.57,10.57,0,0,1-.32-2.53c0-11.57,11.59-19.59,23.5-19.59a29.2,29.2,0,0,1,29.2,29.2A32.19,32.19,0,0,1,287,153.09h0a35.47,35.47,0,0,0,21.8-43.74Z" transform="translate(-237.43 -82.24)"/></svg>